<?xml version="1.0" encoding="UTF-8" standalone="no"?>
<!DOCTYPE svg PUBLIC "-//W3C//DTD SVG 1.1//EN" "http://www.w3.org/Graphics/SVG/1.1/DTD/svg11.dtd">
<svg width="100%" height="100%" viewBox="0 0 562 562" version="1.1" xmlns="http://www.w3.org/2000/svg" xmlns:xlink="http://www.w3.org/1999/xlink" xml:space="preserve" xmlns:serif="http://www.serif.com/" style="fill-rule:evenodd;clip-rule:evenodd;stroke-linejoin:round;stroke-miterlimit:2;">
    <g transform="matrix(1,0,0,1,-19.2684,-119.268)">
        <g transform="matrix(0.879893,0,0,0.879893,19.2684,174.747)">
            <path d="M30,376L72,376L72,424L30,424C26.708,424 24,421.292 24,418L24,412L6,412C2.708,412 0,409.292 0,406L0,394C-0,390.708 2.708,388 6,388L24,388L24,382C24,378.708 26.708,376 30,376ZM30,280L72,280L72,328L30,328C26.708,328 24,325.292 24,322L24,316L6,316C2.708,316 0,313.292 0,310L0,298C-0,294.708 2.708,292 6,292L24,292L24,286C24,282.708 26.708,280 30,280ZM30,184L72,184L72,232L30,232C26.708,232 24,229.292 24,226L24,220L6,220C2.708,220 0,217.292 0,214L0,202C-0,198.708 2.708,196 6,196L24,196L24,190C24,186.708 26.708,184 30,184ZM30,88L72,88L72,136L30,136C26.708,136 24,133.292 24,130L24,124L6,124C2.708,124 0,121.292 0,118L0,106C-0,102.708 2.708,100 6,100L24,100L24,94C24,90.708 26.708,88 30,88Z" style="fill:rgb(255,213,0);fill-rule:nonzero;"/>
        </g>
        <g transform="matrix(-0.879893,0,0,0.879893,580.732,174.747)">
            <path d="M30,376L72,376L72,424L30,424C26.708,424 24,421.292 24,418L24,412L6,412C2.708,412 0,409.292 0,406L0,394C-0,390.708 2.708,388 6,388L24,388L24,382C24,378.708 26.708,376 30,376ZM30,280L72,280L72,328L30,328C26.708,328 24,325.292 24,322L24,316L6,316C2.708,316 0,313.292 0,310L0,298C-0,294.708 2.708,292 6,292L24,292L24,286C24,282.708 26.708,280 30,280ZM30,184L72,184L72,232L30,232C26.708,232 24,229.292 24,226L24,220L6,220C2.708,220 0,217.292 0,214L0,202C-0,198.708 2.708,196 6,196L24,196L24,190C24,186.708 26.708,184 30,184ZM30,88L72,88L72,136L30,136C26.708,136 24,133.292 24,130L24,124L6,124C2.708,124 0,121.292 0,118L0,106C-0,102.708 2.708,100 6,100L24,100L24,94C24,90.708 26.708,88 30,88Z" style="fill:rgb(255,213,0);fill-rule:nonzero;"/>
        </g>
        <g transform="matrix(4.16334e-17,-0.879893,0.879893,4.16334e-17,74.7473,680.732)">
            <path d="M30,376L72,376L72,424L30,424C26.708,424 24,421.292 24,418L24,412L6,412C2.708,412 0,409.292 0,406L0,394C-0,390.708 2.708,388 6,388L24,388L24,382C24,378.708 26.708,376 30,376ZM30,280L72,280L72,328L30,328C26.708,328 24,325.292 24,322L24,316L6,316C2.708,316 0,313.292 0,310L0,298C-0,294.708 2.708,292 6,292L24,292L24,286C24,282.708 26.708,280 30,280ZM30,184L72,184L72,232L30,232C26.708,232 24,229.292 24,226L24,220L6,220C2.708,220 0,217.292 0,214L0,202C-0,198.708 2.708,196 6,196L24,196L24,190C24,186.708 26.708,184 30,184ZM30,88L72,88L72,136L30,136C26.708,136 24,133.292 24,130L24,124L6,124C2.708,124 0,121.292 0,118L0,106C-0,102.708 2.708,100 6,100L24,100L24,94C24,90.708 26.708,88 30,88Z" style="fill:rgb(255,213,0);fill-rule:nonzero;"/>
        </g>
        <g transform="matrix(-4.16334e-17,0.879893,0.879893,4.16334e-17,74.7473,119.268)">
            <path d="M30,376L72,376L72,424L30,424C26.708,424 24,421.292 24,418L24,412L6,412C2.708,412 0,409.292 0,406L0,394C-0,390.708 2.708,388 6,388L24,388L24,382C24,378.708 26.708,376 30,376ZM30,280L72,280L72,328L30,328C26.708,328 24,325.292 24,322L24,316L6,316C2.708,316 0,313.292 0,310L0,298C-0,294.708 2.708,292 6,292L24,292L24,286C24,282.708 26.708,280 30,280ZM30,184L72,184L72,232L30,232C26.708,232 24,229.292 24,226L24,220L6,220C2.708,220 0,217.292 0,214L0,202C-0,198.708 2.708,196 6,196L24,196L24,190C24,186.708 26.708,184 30,184ZM30,88L72,88L72,136L30,136C26.708,136 24,133.292 24,130L24,124L6,124C2.708,124 0,121.292 0,118L0,106C-0,102.708 2.708,100 6,100L24,100L24,94C24,90.708 26.708,88 30,88Z" style="fill:rgb(255,213,0);fill-rule:nonzero;"/>
        </g>
        <g transform="matrix(1,0,0,1,-29.9472,84.9087)">
            <path d="M530.41,157.071C530.41,133.884 511.585,115.059 488.398,115.059L171.033,115.059C147.846,115.059 129.021,133.884 129.021,157.071L129.021,473.112C129.021,496.299 147.846,515.123 171.033,515.123L488.398,515.123C511.585,515.123 530.41,496.299 530.41,473.112L530.41,157.071Z" style="fill:rgb(255,251,251);"/>
        </g>
    </g>
</svg>
