<?xml version="1.0" encoding="UTF-8" standalone="no"?>
<!DOCTYPE svg PUBLIC "-//W3C//DTD SVG 1.1//EN" "http://www.w3.org/Graphics/SVG/1.1/DTD/svg11.dtd">
<svg width="100%" height="100%" viewBox="0 0 200 200" version="1.1" xmlns="http://www.w3.org/2000/svg" xmlns:xlink="http://www.w3.org/1999/xlink" xml:space="preserve" xmlns:serif="http://www.serif.com/" style="fill-rule:evenodd;clip-rule:evenodd;stroke-linejoin:round;stroke-miterlimit:2;">
    <g transform="matrix(3.64345,0,0,3.64345,22.1714,0)">
        <path d="M16.65,12.117C16.533,12.119 16.426,12.188 16.377,12.295L15.8,13.573C15.787,13.583 15.771,13.589 15.755,13.592C15.737,13.592 15.717,13.573 15.703,13.533C15.689,13.493 15.619,13.309 15.469,12.961L15.284,12.543C15.218,12.389 15.165,12.288 15.148,12.256C15.098,12.17 15.006,12.117 14.907,12.116C14.899,12.105 14.895,12.092 14.896,12.078C14.895,12.065 14.898,12.053 14.903,12.041L15,12.041C15.108,12.041 15.2,12.046 15.28,12.046C15.36,12.046 15.532,12.037 15.637,12.037L15.7,12.037C15.71,12.037 15.714,12.062 15.714,12.07C15.715,12.084 15.712,12.099 15.707,12.112C15.637,12.119 15.48,12.112 15.48,12.212C15.48,12.241 15.485,12.27 15.494,12.298L15.872,13.198L16.187,12.455C16.216,12.392 16.23,12.324 16.229,12.255C16.229,12.171 16.17,12.134 16.012,12.115C16.007,12.104 16.004,12.092 16.002,12.08C16.003,12.065 16.006,12.05 16.012,12.036L16.057,12.036C16.127,12.036 16.197,12.045 16.357,12.045C16.385,12.045 16.493,12.04 16.546,12.04L16.654,12.04C16.661,12.05 16.666,12.061 16.668,12.073C16.666,12.089 16.66,12.104 16.65,12.117Z" style="fill:white;fill-rule:nonzero;"/>
    </g>
    <g transform="matrix(3.64345,0,0,3.64345,22.1714,0)">
        <path d="M18.248,13.549C17.79,13.549 17.542,13.537 17.479,13.537L17.262,13.537C17.199,13.537 17.052,13.547 16.891,13.547L16.8,13.547C16.794,13.537 16.792,13.525 16.793,13.514C16.791,13.499 16.791,13.485 16.793,13.47C16.873,13.471 16.952,13.454 17.024,13.421C17.061,13.35 17.078,13.27 17.073,13.19L17.073,12.3C17.073,12.134 16.989,12.134 16.818,12.115C16.814,12.102 16.812,12.089 16.811,12.075C16.811,12.066 16.811,12.042 16.825,12.037L17.402,12.037C17.664,12.037 17.92,12.042 17.975,12.042L18.132,12.042C18.167,12.042 18.181,12.042 18.181,12.077L18.202,12.42C18.181,12.43 18.177,12.434 18.16,12.434C18.148,12.436 18.137,12.436 18.125,12.434C18.073,12.329 17.994,12.239 17.898,12.172C17.858,12.147 17.812,12.134 17.765,12.134L17.565,12.134C17.465,12.134 17.408,12.134 17.394,12.139C17.38,12.144 17.38,12.139 17.373,12.197C17.373,12.234 17.366,12.297 17.366,12.497L17.366,12.697L17.418,12.697C17.475,12.698 17.533,12.692 17.589,12.68C17.651,12.663 17.706,12.625 17.743,12.572C17.759,12.531 17.771,12.489 17.778,12.446C17.793,12.438 17.81,12.435 17.827,12.436C17.841,12.435 17.854,12.44 17.865,12.448C17.865,12.509 17.851,12.625 17.851,12.771C17.851,12.844 17.858,13.005 17.858,13.071C17.846,13.081 17.831,13.085 17.816,13.083C17.802,13.083 17.788,13.081 17.774,13.078C17.76,12.949 17.739,12.861 17.631,12.816C17.578,12.794 17.521,12.783 17.463,12.784C17.43,12.785 17.396,12.787 17.363,12.791L17.363,13.191C17.359,13.251 17.366,13.311 17.384,13.369C17.395,13.395 17.429,13.448 17.475,13.453C17.521,13.461 17.568,13.464 17.615,13.463L17.832,13.463C17.89,13.463 17.947,13.451 18,13.428C18.105,13.342 18.188,13.231 18.241,13.105C18.255,13.099 18.271,13.095 18.286,13.096C18.302,13.097 18.317,13.1 18.331,13.107L18.331,13.507C18.329,13.544 18.3,13.549 18.248,13.549Z" style="fill:white;fill-rule:nonzero;"/>
    </g>
    <g transform="matrix(3.64345,0,0,3.64345,22.1714,0)">
        <path d="M20.067,12.514C20.057,12.514 20.043,12.514 20.025,12.509C19.997,12.43 19.96,12.355 19.913,12.285C19.847,12.196 19.744,12.141 19.633,12.138L19.486,12.138L19.486,13.262C19.486,13.439 19.566,13.439 19.748,13.462C19.756,13.475 19.761,13.49 19.762,13.506C19.762,13.519 19.759,13.532 19.752,13.543L19.685,13.543C19.585,13.543 19.37,13.536 19.304,13.536C19.259,13.536 19.028,13.546 18.919,13.546C18.909,13.535 18.904,13.521 18.905,13.506C18.906,13.492 18.91,13.478 18.916,13.466C19.157,13.448 19.182,13.403 19.189,13.326C19.196,13.277 19.196,13.078 19.196,12.875L19.196,12.32C19.197,12.259 19.193,12.197 19.182,12.137C19.104,12.134 19.025,12.14 18.948,12.153C18.809,12.221 18.702,12.34 18.648,12.485C18.636,12.489 18.623,12.491 18.61,12.49C18.596,12.491 18.583,12.485 18.575,12.474L18.575,12.086C18.575,12.051 18.575,12.042 18.62,12.042L19.333,12.042C19.697,12.042 19.966,12.033 20.033,12.033C20.068,12.033 20.092,12.033 20.106,12.045C20.108,12.064 20.108,12.082 20.106,12.101L20.106,12.489C20.099,12.504 20.084,12.514 20.067,12.514Z" style="fill:white;fill-rule:nonzero;"/>
    </g>
    <g transform="matrix(3.64345,0,0,3.64345,22.1714,0)">
        <path d="M16.577,14.881C16.563,14.881 16.552,14.881 16.532,14.876C16.507,14.796 16.47,14.72 16.42,14.652C16.355,14.562 16.251,14.508 16.14,14.505L15.993,14.505L15.993,15.629C15.993,15.806 16.077,15.806 16.259,15.829C16.267,15.842 16.27,15.858 16.269,15.873C16.27,15.886 16.268,15.899 16.262,15.91L16.2,15.91C16.092,15.91 15.882,15.903 15.819,15.903C15.774,15.903 15.543,15.914 15.431,15.914C15.423,15.902 15.42,15.888 15.421,15.874C15.422,15.86 15.424,15.847 15.428,15.834C15.669,15.816 15.694,15.771 15.704,15.694L15.704,14.691C15.707,14.629 15.703,14.568 15.694,14.507C15.614,14.504 15.535,14.51 15.456,14.523C15.317,14.591 15.209,14.71 15.156,14.855C15.142,14.859 15.128,14.861 15.114,14.86C15.101,14.86 15.088,14.854 15.079,14.844L15.079,14.456C15.079,14.421 15.086,14.412 15.124,14.412L15.84,14.412C16.2,14.412 16.473,14.403 16.54,14.403C16.578,14.403 16.603,14.403 16.614,14.415C16.625,14.427 16.614,14.45 16.614,14.471L16.614,14.859C16.606,14.872 16.592,14.88 16.577,14.881Z" style="fill:white;fill-rule:nonzero;"/>
    </g>
    <g transform="matrix(3.64345,0,0,3.64345,22.1714,0)">
        <path d="M18.3,15.916C17.845,15.916 17.594,15.904 17.534,15.904L17.314,15.904C17.255,15.904 17.104,15.915 16.947,15.915L16.856,15.915C16.85,15.905 16.846,15.894 16.846,15.882C16.845,15.867 16.847,15.852 16.853,15.838C16.931,15.84 17.009,15.823 17.08,15.789C17.108,15.759 17.122,15.695 17.129,15.558C17.129,15.488 17.136,15.411 17.136,15.332L17.136,14.671C17.136,14.505 17.055,14.505 16.884,14.486C16.878,14.473 16.875,14.46 16.874,14.446C16.874,14.437 16.881,14.413 16.891,14.408L17.465,14.408C17.731,14.408 17.982,14.413 18.042,14.413L18.196,14.413C18.234,14.413 18.248,14.413 18.248,14.448L18.265,14.791C18.253,14.8 18.238,14.805 18.223,14.805C18.211,14.807 18.2,14.807 18.188,14.805C18.138,14.698 18.059,14.608 17.961,14.543C17.922,14.518 17.878,14.505 17.832,14.505L17.626,14.505C17.526,14.505 17.469,14.505 17.458,14.51C17.447,14.515 17.44,14.51 17.433,14.568L17.433,15.068L17.482,15.068C17.54,15.069 17.597,15.063 17.653,15.05C17.716,15.033 17.771,14.995 17.81,14.942C17.825,14.901 17.835,14.859 17.841,14.816C17.856,14.809 17.873,14.805 17.89,14.805C17.905,14.804 17.92,14.808 17.932,14.817C17.932,14.878 17.915,14.994 17.915,15.14C17.915,15.213 17.925,15.374 17.925,15.44C17.913,15.449 17.898,15.454 17.883,15.452C17.868,15.452 17.853,15.45 17.838,15.447C17.824,15.318 17.806,15.23 17.695,15.185C17.643,15.163 17.587,15.152 17.531,15.153C17.498,15.154 17.464,15.156 17.431,15.16L17.431,15.56C17.428,15.62 17.434,15.68 17.448,15.738C17.462,15.764 17.497,15.817 17.539,15.822C17.585,15.83 17.632,15.834 17.679,15.833L17.899,15.833C17.954,15.836 18.009,15.827 18.06,15.808C18.168,15.723 18.252,15.612 18.305,15.485C18.319,15.478 18.334,15.475 18.35,15.476C18.365,15.476 18.379,15.48 18.392,15.486L18.392,15.886C18.385,15.911 18.36,15.916 18.3,15.916Z" style="fill:white;fill-rule:nonzero;"/>
    </g>
    <g transform="matrix(3.64345,0,0,3.64345,22.1714,0)">
        <path d="M19.367,15.949C19.245,15.944 19.126,15.913 19.017,15.858C18.999,15.851 18.98,15.847 18.961,15.846C18.92,15.857 18.882,15.877 18.849,15.904C18.814,15.906 18.78,15.888 18.761,15.859C18.761,15.827 18.789,15.733 18.789,15.674C18.789,15.639 18.779,15.474 18.775,15.429C18.791,15.409 18.815,15.397 18.841,15.398C18.849,15.397 18.858,15.397 18.866,15.398C18.898,15.459 18.961,15.624 19.006,15.69C19.091,15.787 19.213,15.845 19.342,15.849C19.43,15.858 19.518,15.832 19.587,15.776C19.644,15.732 19.675,15.663 19.671,15.592C19.674,15.543 19.659,15.495 19.629,15.456C19.588,15.405 19.533,15.366 19.472,15.344C19.406,15.312 19.172,15.255 19.087,15.209C19.007,15.175 18.935,15.125 18.877,15.06C18.819,14.98 18.788,14.884 18.789,14.785C18.792,14.551 18.985,14.361 19.219,14.361C19.231,14.361 19.242,14.361 19.254,14.362C19.382,14.353 19.509,14.388 19.614,14.462C19.641,14.432 19.67,14.403 19.701,14.376C19.733,14.373 19.764,14.388 19.781,14.416C19.769,14.484 19.761,14.553 19.757,14.622C19.757,14.662 19.781,14.822 19.781,14.846C19.763,14.857 19.743,14.864 19.722,14.867C19.712,14.866 19.703,14.864 19.694,14.86C19.652,14.787 19.614,14.66 19.568,14.598C19.497,14.507 19.383,14.458 19.268,14.469C19.261,14.468 19.254,14.468 19.247,14.468C19.118,14.468 19.008,14.57 19,14.7C19.009,14.806 19.083,14.895 19.185,14.924C19.248,14.949 19.325,14.978 19.412,15.005C19.494,15.031 19.575,15.062 19.653,15.098C19.811,15.166 19.91,15.326 19.901,15.498C19.882,15.752 19.668,15.951 19.413,15.951C19.398,15.951 19.382,15.95 19.367,15.949Z" style="fill:white;fill-rule:nonzero;"/>
    </g>
    <g transform="matrix(3.64345,0,0,3.64345,22.1714,0)">
        <path d="M17.186,18.287C16.728,18.287 16.48,18.275 16.417,18.275L16.2,18.275C16.137,18.275 15.99,18.286 15.829,18.286L15.738,18.286C15.732,18.276 15.73,18.264 15.731,18.253C15.729,18.238 15.729,18.224 15.731,18.209C15.811,18.21 15.89,18.193 15.962,18.16C15.999,18.089 16.016,18.009 16.011,17.929L16.011,17.042C16.011,16.876 15.927,16.876 15.756,16.857C15.752,16.844 15.75,16.831 15.749,16.817C15.749,16.808 15.749,16.784 15.763,16.779L16.34,16.779C16.602,16.779 16.857,16.784 16.913,16.784L17.07,16.784C17.105,16.784 17.119,16.784 17.119,16.819L17.14,17.162C17.119,17.173 17.116,17.176 17.098,17.176C17.086,17.178 17.075,17.178 17.063,17.176C17.011,17.071 16.932,16.981 16.836,16.914C16.796,16.889 16.75,16.876 16.703,16.876L16.503,16.876C16.403,16.876 16.346,16.876 16.332,16.881C16.318,16.886 16.318,16.881 16.311,16.939C16.311,16.976 16.304,17.039 16.304,17.239L16.304,17.439L16.356,17.439C16.413,17.44 16.471,17.434 16.527,17.422C16.589,17.405 16.644,17.367 16.681,17.314C16.697,17.273 16.709,17.231 16.716,17.188C16.731,17.18 16.748,17.176 16.765,17.177C16.779,17.177 16.792,17.181 16.803,17.189C16.803,17.25 16.789,17.366 16.789,17.512C16.789,17.586 16.796,17.746 16.796,17.812C16.784,17.822 16.769,17.826 16.754,17.824C16.74,17.824 16.726,17.822 16.712,17.819C16.698,17.69 16.677,17.602 16.569,17.557C16.516,17.535 16.459,17.524 16.401,17.526C16.368,17.527 16.334,17.529 16.301,17.533L16.301,17.933C16.297,17.993 16.304,18.053 16.322,18.111C16.333,18.137 16.367,18.19 16.413,18.195C16.459,18.203 16.506,18.206 16.553,18.205L16.77,18.205C16.826,18.207 16.881,18.199 16.934,18.18C17.04,18.094 17.122,17.983 17.175,17.857C17.189,17.851 17.205,17.847 17.22,17.848C17.236,17.849 17.251,17.852 17.265,17.859L17.265,18.259C17.266,18.281 17.241,18.287 17.186,18.287Z" style="fill:white;fill-rule:nonzero;"/>
    </g>
    <g transform="matrix(3.64345,0,0,3.64345,22.1714,0)">
        <path d="M19.388,16.85C19.234,16.855 19.101,16.939 19.101,17.184L19.101,17.962C19.101,17.992 19.115,18.212 19.115,18.296C19.096,18.309 19.075,18.318 19.052,18.321C19.037,18.316 19.024,18.308 19.014,18.296L17.948,17.149L17.959,17.383L17.959,17.806C17.959,17.839 17.966,17.918 17.973,17.977C17.97,18.04 17.999,18.1 18.05,18.138C18.109,18.178 18.179,18.201 18.25,18.204C18.256,18.215 18.26,18.227 18.26,18.239C18.259,18.253 18.254,18.266 18.246,18.277L17.855,18.277C17.789,18.277 17.694,18.284 17.628,18.284L17.579,18.284C17.577,18.272 17.577,18.261 17.579,18.249C17.579,18.236 17.581,18.223 17.586,18.211C17.676,18.208 17.761,18.172 17.827,18.111C17.847,18.052 17.855,17.991 17.852,17.929L17.852,17.387C17.852,17.3 17.852,17.256 17.845,17.17C17.847,17.109 17.828,17.049 17.79,17C17.768,16.971 17.743,16.945 17.716,16.921C17.662,16.889 17.605,16.864 17.545,16.846C17.54,16.835 17.536,16.823 17.535,16.811C17.535,16.798 17.539,16.785 17.545,16.773L17.583,16.773C17.615,16.773 17.783,16.782 17.905,16.782L17.978,16.782C17.995,16.789 18.01,16.799 18.023,16.812L18.813,17.676C18.872,17.742 18.949,17.83 18.991,17.886L18.991,17.26C18.992,17.202 18.989,17.145 18.984,17.087C18.98,17.03 18.965,16.975 18.939,16.924C18.915,16.886 18.768,16.865 18.691,16.849C18.686,16.835 18.683,16.819 18.684,16.804C18.683,16.793 18.683,16.782 18.684,16.771L18.729,16.771C18.802,16.771 18.921,16.782 18.995,16.782C19.177,16.782 19.233,16.777 19.324,16.777L19.383,16.777C19.388,16.789 19.391,16.801 19.39,16.814C19.392,16.826 19.391,16.838 19.388,16.85Z" style="fill:white;fill-rule:nonzero;"/>
    </g>
    <g transform="matrix(3.64345,0,0,3.64345,22.1714,0)">
        <path d="M24.371,12.112C24.221,12.117 24.084,12.201 24.084,12.446L24.084,13.224C24.084,13.254 24.094,13.474 24.094,13.558C24.077,13.571 24.056,13.58 24.035,13.583C24.025,13.583 24.014,13.574 23.993,13.558L22.927,12.411L22.941,12.645L22.941,13.068C22.941,13.101 22.948,13.18 22.951,13.239C22.952,13.301 22.98,13.36 23.028,13.4C23.088,13.439 23.157,13.462 23.228,13.466C23.234,13.477 23.238,13.489 23.238,13.501C23.237,13.514 23.233,13.527 23.228,13.539L22.833,13.539C22.767,13.539 22.676,13.546 22.609,13.546L22.56,13.546C22.556,13.535 22.554,13.523 22.553,13.511C22.553,13.498 22.557,13.484 22.564,13.473C22.653,13.469 22.737,13.434 22.802,13.373C22.823,13.315 22.832,13.253 22.827,13.191L22.827,12.432C22.827,12.373 22.809,12.316 22.775,12.268C22.751,12.24 22.726,12.213 22.698,12.189C22.645,12.157 22.587,12.131 22.527,12.114C22.524,12.102 22.522,12.091 22.52,12.079C22.521,12.066 22.523,12.053 22.527,12.041L22.569,12.041C22.597,12.041 22.761,12.05 22.887,12.05L22.96,12.05C22.977,12.058 22.994,12.068 23.009,12.08L23.799,12.944C23.858,13.01 23.935,13.098 23.977,13.154L23.977,12.532C23.977,12.474 23.973,12.416 23.966,12.359C23.964,12.302 23.948,12.246 23.921,12.196C23.897,12.158 23.75,12.137 23.676,12.121C23.67,12.107 23.666,12.092 23.666,12.076C23.665,12.065 23.668,12.053 23.673,12.043L23.718,12.043C23.791,12.043 23.91,12.053 23.984,12.053C24.162,12.053 24.222,12.048 24.313,12.048L24.369,12.048C24.375,12.059 24.379,12.072 24.38,12.085C24.378,12.094 24.375,12.104 24.371,12.112Z" style="fill:white;fill-rule:nonzero;"/>
    </g>
    <g transform="matrix(3.64345,0,0,3.64345,22.1714,0)">
        <path d="M25.941,13.358C25.8,13.503 25.605,13.585 25.403,13.585C25.205,13.585 25.016,13.507 24.875,13.369C24.723,13.217 24.64,13.009 24.648,12.794C24.642,12.58 24.724,12.373 24.875,12.222C25.016,12.081 25.207,12.001 25.406,12C25.547,12.001 25.685,12.04 25.806,12.112C26.037,12.256 26.178,12.51 26.177,12.782C26.175,12.997 26.091,13.203 25.941,13.358ZM25.696,12.258C25.63,12.157 25.517,12.097 25.396,12.099C25.281,12.098 25.174,12.159 25.116,12.258C25.013,12.416 24.963,12.603 24.976,12.791C24.966,12.977 25.012,13.162 25.109,13.321C25.171,13.427 25.286,13.491 25.409,13.487C25.55,13.492 25.68,13.41 25.738,13.281C25.812,13.131 25.847,12.964 25.838,12.797C25.853,12.606 25.804,12.416 25.7,12.255L25.696,12.258Z" style="fill:white;fill-rule:nonzero;"/>
    </g>
    <g transform="matrix(3.64345,0,0,3.64345,22.1714,0)">
        <path d="M28.088,12.117C27.972,12.121 27.868,12.19 27.819,12.295L27.246,13.573C27.233,13.583 27.217,13.589 27.201,13.592C27.183,13.592 27.159,13.573 27.149,13.533C27.139,13.493 27.065,13.309 26.911,12.961L26.729,12.543C26.663,12.389 26.61,12.288 26.593,12.256C26.543,12.171 26.451,12.118 26.352,12.116C26.342,12.106 26.337,12.092 26.338,12.078C26.337,12.065 26.341,12.052 26.349,12.041L26.443,12.041C26.543,12.041 26.643,12.046 26.719,12.046C26.795,12.046 26.971,12.037 27.079,12.037L27.138,12.037C27.152,12.037 27.155,12.062 27.155,12.07C27.156,12.084 27.153,12.099 27.148,12.112C27.075,12.119 26.921,12.112 26.921,12.212C26.919,12.241 26.924,12.271 26.935,12.298L27.309,13.198L27.627,12.455C27.653,12.392 27.666,12.324 27.665,12.255C27.665,12.171 27.606,12.134 27.448,12.115C27.444,12.104 27.442,12.092 27.441,12.08C27.441,12.065 27.443,12.05 27.448,12.036L27.493,12.036C27.563,12.036 27.633,12.045 27.793,12.045C27.818,12.045 27.929,12.04 27.982,12.04L28.09,12.04C28.106,12.062 28.106,12.093 28.09,12.115L28.088,12.117Z" style="fill:white;fill-rule:nonzero;"/>
    </g>
    <g transform="matrix(3.64345,0,0,3.64345,22.1714,0)">
        <path d="M23.878,14.881C23.864,14.881 23.854,14.881 23.833,14.876C23.808,14.796 23.77,14.72 23.721,14.652C23.656,14.562 23.552,14.508 23.441,14.505L23.294,14.505L23.294,15.629C23.294,15.806 23.378,15.806 23.56,15.829C23.568,15.842 23.572,15.858 23.571,15.873C23.572,15.886 23.57,15.899 23.564,15.91L23.5,15.91C23.392,15.91 23.182,15.903 23.119,15.903C23.074,15.903 22.843,15.914 22.731,15.914C22.723,15.902 22.719,15.888 22.72,15.874C22.721,15.86 22.723,15.847 22.727,15.834C22.968,15.816 22.993,15.771 23.003,15.694L23.003,14.691C23.005,14.629 23.002,14.568 22.992,14.507C22.912,14.504 22.833,14.51 22.754,14.523C22.615,14.591 22.507,14.71 22.454,14.855C22.44,14.859 22.426,14.861 22.412,14.86C22.399,14.86 22.386,14.854 22.377,14.844L22.377,14.456C22.377,14.421 22.384,14.412 22.422,14.412L23.138,14.412C23.498,14.412 23.771,14.403 23.838,14.403C23.876,14.403 23.901,14.403 23.911,14.415C23.921,14.427 23.911,14.45 23.911,14.471L23.911,14.859C23.904,14.871 23.892,14.879 23.878,14.881Z" style="fill:white;fill-rule:nonzero;"/>
    </g>
    <g transform="matrix(3.64345,0,0,3.64345,22.1714,0)">
        <path d="M25.689,15.914L25.57,15.914C25.493,15.914 25.406,15.904 25.315,15.904C25.172,15.904 24.99,15.914 24.915,15.914C24.907,15.903 24.903,15.89 24.904,15.876C24.905,15.864 24.907,15.852 24.911,15.841C25.058,15.834 25.117,15.809 25.117,15.75C25.115,15.681 25.1,15.613 25.072,15.55C25.027,15.44 25.002,15.389 24.991,15.361C24.984,15.35 24.981,15.345 24.949,15.345L24.474,15.345C24.422,15.435 24.384,15.532 24.362,15.633C24.354,15.662 24.351,15.691 24.351,15.721C24.351,15.77 24.396,15.821 24.564,15.829C24.571,15.842 24.575,15.856 24.574,15.871C24.576,15.883 24.576,15.894 24.574,15.906L24.532,15.906C24.42,15.906 24.389,15.899 24.27,15.899C24.193,15.899 24.008,15.906 23.945,15.906C23.941,15.896 23.939,15.885 23.938,15.874C23.938,15.861 23.94,15.848 23.945,15.836C24.029,15.829 24.107,15.789 24.162,15.726C24.237,15.601 24.301,15.469 24.354,15.333C24.438,15.133 24.539,14.877 24.585,14.77C24.648,14.639 24.669,14.595 24.685,14.55C24.717,14.484 24.751,14.417 24.765,14.393C24.781,14.374 24.804,14.363 24.828,14.363C24.852,14.363 24.875,14.374 24.891,14.393C24.905,14.417 24.917,14.442 24.926,14.468C25.013,14.676 25.083,14.861 25.192,15.12C25.248,15.251 25.276,15.333 25.335,15.47C25.377,15.556 25.401,15.62 25.443,15.699C25.499,15.813 25.59,15.814 25.681,15.837C25.681,15.847 25.695,15.858 25.695,15.872C25.695,15.886 25.7,15.9 25.689,15.914ZM24.734,14.714C24.702,14.772 24.647,14.903 24.626,14.957C24.545,15.157 24.518,15.219 24.504,15.247L24.955,15.247C24.916,15.161 24.8,14.883 24.735,14.717L24.734,14.714Z" style="fill:white;fill-rule:nonzero;"/>
    </g>
    <g transform="matrix(3.64345,0,0,3.64345,22.1714,0)">
        <path d="M28.025,15.914L27.413,15.907L27.245,15.907C27.239,15.895 27.235,15.882 27.234,15.869C27.233,15.855 27.238,15.841 27.248,15.831C27.298,15.831 27.349,15.827 27.398,15.817C27.461,15.789 27.486,15.728 27.486,15.637L27.486,14.549L27.164,15.249C27.129,15.326 27.087,15.41 27.052,15.494C27.001,15.606 26.957,15.72 26.919,15.837C26.911,15.857 26.891,15.868 26.87,15.865C26.849,15.865 26.835,15.858 26.825,15.823C26.783,15.732 26.755,15.673 26.741,15.634L26.241,14.526L26.23,14.526L26.23,14.809L26.241,15.517C26.241,15.732 26.353,15.834 26.524,15.834C26.531,15.845 26.535,15.858 26.538,15.871C26.537,15.884 26.533,15.897 26.527,15.908L26.45,15.908C26.418,15.908 26.317,15.898 26.156,15.898L25.843,15.898C25.839,15.886 25.837,15.874 25.836,15.861C25.837,15.85 25.84,15.839 25.843,15.828C25.92,15.813 25.994,15.787 26.063,15.751C26.095,15.721 26.122,15.657 26.122,15.508L26.122,14.732C26.122,14.608 26.105,14.561 26.045,14.519C25.981,14.496 25.913,14.482 25.845,14.479C25.839,14.466 25.835,14.452 25.835,14.437C25.836,14.423 25.839,14.409 25.845,14.397C25.905,14.397 26.009,14.402 26.114,14.402L26.481,14.402C26.495,14.411 26.506,14.425 26.513,14.44L26.964,15.463L27.045,15.263C27.115,15.099 27.216,14.852 27.36,14.585L27.451,14.41L28.024,14.401C28.032,14.412 28.037,14.425 28.038,14.438C28.038,14.451 28.034,14.465 28.027,14.476C27.964,14.487 27.856,14.487 27.803,14.576C27.785,14.604 27.775,14.632 27.775,14.756L27.775,15.485C27.775,15.765 27.845,15.793 27.875,15.814C27.925,15.828 27.977,15.836 28.029,15.835C28.035,15.847 28.039,15.86 28.039,15.873C28.035,15.9 28.028,15.9 28.025,15.914Z" style="fill:white;fill-rule:nonzero;"/>
    </g>
    <g transform="matrix(3.64345,0,0,3.64345,22.1714,0)">
        <path d="M23.843,17.252C23.829,17.252 23.818,17.252 23.798,17.247C23.773,17.167 23.736,17.091 23.686,17.023C23.621,16.933 23.517,16.879 23.406,16.876L23.259,16.876L23.259,18C23.259,18.177 23.343,18.177 23.525,18.2C23.533,18.213 23.536,18.229 23.535,18.244C23.536,18.257 23.534,18.27 23.528,18.281L23.462,18.281C23.354,18.281 23.144,18.274 23.081,18.274C23.036,18.274 22.805,18.285 22.693,18.285C22.685,18.273 22.682,18.259 22.683,18.245C22.684,18.231 22.686,18.218 22.69,18.205C22.931,18.187 22.956,18.142 22.966,18.065L22.966,17.062C22.969,17.001 22.965,16.94 22.956,16.879C22.876,16.876 22.797,16.882 22.718,16.895C22.579,16.963 22.471,17.082 22.418,17.227C22.404,17.231 22.39,17.233 22.376,17.232C22.363,17.232 22.35,17.226 22.341,17.216L22.341,16.828C22.341,16.793 22.348,16.784 22.386,16.784L23.102,16.784C23.462,16.784 23.735,16.775 23.802,16.775C23.84,16.775 23.865,16.775 23.875,16.787C23.885,16.799 23.875,16.822 23.875,16.843L23.875,17.231C23.868,17.242 23.856,17.25 23.843,17.252Z" style="fill:white;fill-rule:nonzero;"/>
    </g>
    <g transform="matrix(3.64345,0,0,3.64345,22.1714,0)">
        <path d="M25.72,16.855C25.604,16.858 25.499,16.928 25.451,17.033L24.877,18.311C24.864,18.321 24.848,18.327 24.832,18.33C24.815,18.33 24.79,18.311 24.78,18.271C24.77,18.231 24.696,18.047 24.542,17.699L24.36,17.281C24.294,17.127 24.241,17.026 24.224,16.994C24.174,16.909 24.082,16.856 23.983,16.854C23.973,16.844 23.968,16.83 23.969,16.816C23.968,16.803 23.972,16.79 23.98,16.779L24.074,16.779C24.174,16.779 24.274,16.784 24.35,16.784C24.426,16.784 24.602,16.775 24.71,16.775L24.769,16.775C24.783,16.775 24.787,16.799 24.787,16.808C24.788,16.822 24.785,16.837 24.78,16.85C24.706,16.857 24.553,16.85 24.553,16.95C24.551,16.979 24.556,17.009 24.567,17.036L24.941,17.936L25.259,17.193C25.285,17.13 25.298,17.062 25.297,16.993C25.297,16.909 25.238,16.873 25.08,16.853C25.076,16.842 25.074,16.83 25.073,16.818C25.073,16.803 25.076,16.788 25.08,16.774L25.125,16.774C25.195,16.774 25.265,16.783 25.425,16.783C25.45,16.783 25.561,16.778 25.614,16.778L25.722,16.778C25.729,16.788 25.733,16.799 25.733,16.811C25.734,16.827 25.73,16.842 25.72,16.855Z" style="fill:white;fill-rule:nonzero;"/>
    </g>
    <g transform="matrix(3.64345,0,0,3.64345,22.1714,0)">
        <path d="M28.056,18.285L27.448,18.278L27.277,18.278C27.272,18.266 27.269,18.253 27.27,18.24C27.268,18.227 27.272,18.213 27.28,18.202C27.332,18.202 27.383,18.198 27.434,18.188C27.493,18.16 27.518,18.099 27.518,18.008L27.518,16.925L27.511,16.925L27.193,17.625C27.155,17.702 27.116,17.786 27.078,17.87C27.008,18.034 26.966,18.148 26.945,18.213C26.938,18.241 26.913,18.241 26.896,18.241C26.879,18.241 26.865,18.234 26.851,18.199C26.813,18.108 26.784,18.049 26.77,18.01L26.266,16.9L26.256,16.9L26.256,17.183L26.266,17.891C26.266,18.106 26.378,18.208 26.553,18.208C26.559,18.22 26.562,18.232 26.563,18.245C26.564,18.258 26.561,18.27 26.556,18.282L26.476,18.282C26.441,18.282 26.347,18.272 26.186,18.272L25.873,18.272C25.866,18.261 25.863,18.248 25.863,18.235C25.864,18.223 25.867,18.212 25.873,18.202C25.95,18.187 26.024,18.161 26.093,18.125C26.14,18.053 26.16,17.967 26.149,17.882L26.149,17.105C26.149,16.981 26.135,16.934 26.072,16.892C26.008,16.869 25.94,16.855 25.872,16.852C25.863,16.84 25.858,16.825 25.858,16.81C25.859,16.796 25.863,16.782 25.872,16.77C25.928,16.77 26.036,16.775 26.138,16.775L26.509,16.775C26.522,16.785 26.531,16.798 26.537,16.813L26.988,17.836L27.072,17.636C27.165,17.405 27.27,17.178 27.387,16.958C27.415,16.899 27.457,16.823 27.478,16.783L28.048,16.774C28.055,16.786 28.066,16.797 28.066,16.811C28.065,16.825 28.06,16.838 28.052,16.849C27.993,16.859 27.884,16.859 27.832,16.949C27.815,16.977 27.801,17.005 27.801,17.129L27.801,17.858C27.801,18.138 27.871,18.166 27.901,18.187C27.95,18.202 28,18.209 28.051,18.208C28.06,18.219 28.065,18.232 28.065,18.246C28.07,18.269 28.063,18.271 28.056,18.285Z" style="fill:white;fill-rule:nonzero;"/>
    </g>
    <g transform="matrix(3.64345,0,0,3.64345,22.1714,0)">
        <path d="M42.539,8.818L42.476,8.1L41.791,8.308C40.126,8.815 38.395,9.071 36.655,9.07C30.631,9.087 25.016,5.958 21.86,0.827L21.364,0L20.864,0.827C17.709,5.959 12.094,9.089 6.07,9.073C4.333,9.075 2.606,8.82 0.944,8.315L0.257,8.107L0.194,8.822C-0.241,13.767 0.056,18.75 1.075,23.609C2.152,28.73 4.006,33.656 6.575,38.215C7.923,40.617 9.46,42.908 11.169,45.068C14.018,48.668 17.323,51.884 21,54.634L21.348,54.893L21.696,54.634C25.38,51.896 28.693,48.691 31.551,45.1C33.261,42.945 34.797,40.656 36.144,38.257C38.596,33.897 40.396,29.201 41.487,24.319L41.63,23.613C42.655,18.752 42.961,13.768 42.539,8.818ZM30.255,12.713L31.112,12.713L31.112,14.388L30.255,14.388L30.255,12.713ZM30.255,17.098L31.112,17.098L31.112,18.775L30.255,18.775L30.255,17.098ZM21.584,10.939C21.925,10.493 22.478,10.261 23.035,10.329L24.689,10.563L26.867,10.85C27.513,10.89 28.159,10.784 28.759,10.541L28.759,19.641C28.151,19.85 27.51,19.946 26.867,19.922L24.767,19.642L23.035,19.4C22.512,19.372 21.996,19.535 21.584,19.858L21.584,10.939ZM14.129,10.558C14.703,10.795 15.324,10.898 15.944,10.858L18.126,10.569L19.776,10.333C20.333,10.265 20.886,10.498 21.227,10.943L21.227,19.868C20.811,19.541 20.29,19.377 19.762,19.406L18.031,19.649L15.944,19.927C14.416,19.927 14.098,19.558 14.094,19.555C14.09,19.552 14.126,11.168 14.13,10.558L14.129,10.558ZM12.884,11.665C13.048,11.632 13.534,11.529 13.772,11.478L13.772,19.658C13.859,19.845 14.234,20.28 15.943,20.28L18.107,19.995L19.761,19.759C20.323,19.692 20.882,19.924 21.23,20.371L21.279,20.343L21.534,20.343L21.583,20.369C21.924,19.923 22.477,19.691 23.034,19.759L24.688,19.993L26.866,20.28C28.6,20.28 29.03,19.824 29.076,19.773L29.108,11.436L29.898,11.656L29.898,20.693C28.86,20.842 27.814,20.924 26.765,20.938C25.367,20.913 23.971,20.815 22.583,20.644L22.383,20.616L22.383,21.228C22.058,21.347 21.715,21.409 21.369,21.413C21.037,21.411 20.707,21.349 20.397,21.23L20.397,20.616L20.197,20.644C18.813,20.815 17.421,20.913 16.026,20.938C14.975,20.924 13.926,20.842 12.886,20.693L12.884,11.665ZM11.684,12.714L12.523,12.714L12.523,14.389L11.684,14.389L11.684,12.714ZM11.684,17.099L12.523,17.099L12.523,18.776L11.684,18.776L11.684,17.099ZM21.348,53.399C17.893,50.779 14.779,47.736 12.079,44.343C12.068,44.329 12.058,44.311 12.047,44.298L21.347,35.249L30.669,44.315C30.655,44.329 30.644,44.35 30.631,44.367C27.927,47.753 24.81,50.787 21.353,53.4L21.348,53.399ZM40.348,24.059C39.291,28.778 37.557,33.32 35.2,37.543L21.357,24.224L7.525,37.515C5.073,33.131 3.292,28.403 2.243,23.49L40.465,23.49L40.348,24.059Z" style="fill:white;fill-rule:nonzero;"/>
    </g>
</svg>
