<?xml version="1.0" encoding="UTF-8" standalone="no"?>
<!DOCTYPE svg PUBLIC "-//W3C//DTD SVG 1.1//EN" "http://www.w3.org/Graphics/SVG/1.1/DTD/svg11.dtd">
<svg width="100%" height="100%" viewBox="0 0 209 701" version="1.1" xmlns="http://www.w3.org/2000/svg" xmlns:xlink="http://www.w3.org/1999/xlink" xml:space="preserve" xmlns:serif="http://www.serif.com/" style="fill-rule:evenodd;clip-rule:evenodd;stroke-linejoin:round;stroke-miterlimit:2;">
    <g transform="matrix(1,0,0,1,-195.533,-70.8154)">
        <g transform="matrix(1,0,0,1.04208,0,-32.4578)">
            <g transform="matrix(-0.965659,0,0,2.02511,596.1,-565.313)">
                <path d="M272.34,554.54L239.046,599.616L282.338,587.505L265.662,659.992L315.753,615.156L351.91,647.841L343.485,601.681L374.213,616.295L340.842,554.563C337.988,555.399 334.893,555.849 331.821,555.846L306.63,555.846L281.438,555.846C278.339,555.849 275.215,555.391 272.34,554.54Z" style="fill:rgb(255,191,0);"/>
            </g>
            <g transform="matrix(1,0,0,0.959615,0,31.147)">
                <path d="M266.887,548.708L266.963,548.755C269.718,550.52 272.707,551.469 275.674,551.463L300,551.462L324.326,551.463C327.292,551.469 330.281,550.52 333.037,548.756L365.263,679.031L335.59,648.191L343.726,745.603L308.81,676.627L260.439,771.246L276.543,618.275L234.737,643.834L266.887,548.708Z" style="fill:rgb(255,105,0);"/>
            </g>
        </g>
        <path d="M275.674,551.463C264.988,551.484 254.005,539.116 254.022,522.041L254.019,492.835L253.326,490.377L207.068,490.377C200.702,490.377 195.533,484.422 195.533,477.087L195.533,417.617L211.354,340.668C199.138,264.034 202.661,188.348 251.375,122.153C263.382,105.715 275.435,89.337 294.16,72.929L294.16,72.93C295.77,71.517 297.885,70.811 300,70.815L300.198,70.817C302.247,70.856 304.281,71.561 305.84,72.93L305.84,72.929C324.565,89.337 336.618,105.715 348.625,122.153C397.339,188.348 400.862,264.034 388.646,340.668L404.467,417.617L404.467,477.087C404.467,484.422 399.298,490.377 392.932,490.377L346.674,490.377L345.981,492.835L345.978,522.041C345.995,539.116 335.012,551.484 324.326,551.463L300,551.462L275.674,551.463Z" style="fill:white;fill-rule:nonzero;"/>
    </g>
</svg>
