<?xml version="1.0" encoding="UTF-8" standalone="no"?>
<!DOCTYPE svg PUBLIC "-//W3C//DTD SVG 1.1//EN" "http://www.w3.org/Graphics/SVG/1.1/DTD/svg11.dtd">
<svg width="100%" height="100%" viewBox="0 0 233 640" version="1.1" xmlns="http://www.w3.org/2000/svg" xmlns:xlink="http://www.w3.org/1999/xlink" xml:space="preserve" xmlns:serif="http://www.serif.com/" style="fill-rule:evenodd;clip-rule:evenodd;stroke-linejoin:round;stroke-miterlimit:2;">
    <g transform="matrix(1,0,0,1,-183.99,-40.9085)">
        <path id="Path-1" serif:id="Path 1" d="M250.921,128.563L209.052,190.55L209.052,559.624C233.946,626.904 242.99,651.264 245.211,657.166C247.43,663.065 249.717,669.102 250.29,670.578L251.332,673.263C257.76,677.006 259.646,678.089 259.671,678.086C259.696,678.084 259.714,555.587 259.714,405.873L259.711,133.666C254.204,130.451 252.228,129.304 251.763,129.041L250.921,128.563ZM196.16,194.609C190.211,196.329 185.038,197.822 184.666,197.928L183.99,198.123L183.99,491.29C185.777,496.391 187.31,500.669 188.55,504.091C189.792,507.512 193.809,518.425 197.48,528.342C201.151,538.258 204.896,548.358 205.801,550.789C206.706,553.217 207.485,555.246 207.534,555.296C207.581,555.345 207.617,473.502 207.615,373.419C207.609,200.232 207.595,191.452 207.294,191.468C207.121,191.477 202.11,192.89 196.16,194.609ZM227.533,127.782C216.426,130.927 207.234,133.537 207.106,133.583C206.978,133.628 201.813,147.823 195.627,165.128C189.441,182.431 184.394,196.605 184.41,196.621C184.427,196.639 189.673,195.15 196.07,193.312C202.754,191.394 207.826,189.847 207.999,189.676C208.163,189.512 217.649,175.544 229.08,158.637C240.511,141.729 249.89,127.734 249.924,127.535C249.956,127.337 249.636,126.039 249.208,124.651C248.57,122.572 248.372,122.121 248.08,122.096C247.885,122.078 238.639,124.636 227.533,127.782ZM381.328,45.299C377.163,47.709 345.845,65.81 311.733,85.518C277.62,105.229 249.686,121.365 249.659,121.38C249.632,121.394 249.996,122.727 250.47,124.344L251.332,127.283C258.248,131.322 260.338,132.494 260.437,132.494C260.536,132.494 264.856,130.049 270.038,127.059C275.22,124.07 287.531,116.961 297.399,111.26C307.265,105.56 315.4,100.865 315.474,100.828C315.548,100.791 315.322,100.456 314.973,100.085C314.621,99.713 314.25,99.124 314.145,98.778C314.04,98.43 313.981,97.24 314.015,96.131C314.067,94.425 314.134,94.037 314.455,93.607C314.673,93.313 316.161,92.344 317.971,91.319C319.696,90.339 325.571,86.962 331.025,83.814C336.479,80.665 341.347,77.964 341.843,77.812C342.416,77.634 344.185,77.462 346.711,77.334L350.677,77.136L354.013,78.223C375.322,66.159 384.997,60.659 389.261,58.215C393.526,55.771 399.672,52.235 402.921,50.356C406.17,48.478 408.829,46.9 408.829,46.851C408.829,46.801 406.942,45.681 404.634,44.361L400.44,41.963C392.474,41.141 389.878,40.905 389.532,40.909C389.041,40.912 387.213,41.891 381.328,45.299ZM376.37,46.446C376.22,46.505 358.046,54.555 335.983,64.335L295.866,82.116C230.89,119.654 211.949,130.624 211.856,130.712C211.762,130.799 211.72,130.871 211.765,130.869C211.81,130.869 220.122,128.534 230.237,125.682L248.628,120.496C347.697,63.253 376.538,46.563 376.631,46.473C376.725,46.384 376.767,46.318 376.722,46.325C376.677,46.332 376.518,46.388 376.37,46.446Z" style="fill:white;fill-rule:nonzero;"/>
        <path id="Path-2" serif:id="Path 2" d="M295.727,604.908C295.583,605.003 295.179,605.623 294.829,606.287C294.48,606.95 286.84,623.516 277.854,643.102C268.868,662.686 261.535,678.726 261.562,678.746C261.588,678.764 266.64,679.119 272.788,679.535L283.966,680.291L300.554,676.959C302.86,675.453 303.866,674.711 304.277,674.339C304.688,673.968 305.35,673.216 305.745,672.671L306.464,671.68C305.575,661.478 305.036,655.556 304.694,651.937C304.351,648.317 303.781,642.718 303.43,639.496C303.078,636.273 302.548,631.81 302.252,629.58C301.955,627.348 301.389,623.657 300.992,621.376C300.595,619.095 300.026,616.012 299.726,614.525C299.425,613.037 298.892,610.886 298.538,609.747C298.183,608.606 297.64,607.118 297.33,606.44C297.022,605.762 296.593,605.101 296.378,604.971C296.119,604.814 295.9,604.792 295.727,604.908ZM261.294,161.401C261.22,174.507 261.164,295.695 261.173,430.709L261.186,676.187C262.24,673.952 269.577,657.988 278.17,639.271L293.793,605.239L293.793,216.062C271.951,162.964 264.683,145.316 263.553,142.59C262.421,139.862 261.481,137.618 261.461,137.601C261.443,137.585 261.368,148.295 261.294,161.401ZM396.737,615.477C388.551,620.21 366.684,632.843 348.146,643.553L314.437,663.025C311.222,667.857 309.774,669.846 309.143,670.56C308.512,671.276 307.782,672.125 307.521,672.45C307.259,672.776 307.084,673.072 307.135,673.108C307.184,673.146 320.327,665.611 336.343,656.367C352.358,647.123 376.536,633.17 390.073,625.359C403.608,617.55 414.824,611.023 414.996,610.859C415.167,610.693 415.356,610.192 415.416,609.747C415.517,608.972 415.495,608.921 414.922,608.597C414.594,608.409 413.755,607.944 413.061,607.562C412.367,607.179 411.757,606.869 411.709,606.869C411.658,606.871 404.922,610.744 396.737,615.477ZM307.667,148.951C307.672,148.973 307.432,151.951 307.133,155.572C306.836,159.191 306.388,164.425 306.138,167.201C305.887,169.978 305.48,174.278 305.231,176.757C304.982,179.236 304.492,183.78 304.142,186.854C303.792,189.928 303.356,193.498 303.172,194.787C302.988,196.076 302.467,199.28 302.016,201.909C301.565,204.536 301.028,207.498 300.824,208.49C300.621,209.482 300.046,211.55 299.548,213.088C299.048,214.624 298.421,216.273 298.154,216.749C297.817,217.355 297.451,217.723 296.948,217.965C296.551,218.156 296.104,218.311 295.956,218.309C295.807,218.307 295.423,218.105 295.1,217.86L294.514,217.415L294.514,604.158C295.282,603.59 295.708,603.424 295.956,603.426C296.203,603.426 296.69,603.613 297.038,603.842C297.384,604.071 297.891,604.662 298.161,605.155C298.43,605.647 299.056,607.268 299.55,608.755C300.044,610.243 300.691,612.677 300.987,614.164C301.282,615.652 301.737,618.125 301.996,619.663C302.256,621.199 302.541,622.783 302.629,623.179C302.718,623.576 303.033,625.685 303.331,627.867C303.63,630.049 304.117,633.983 304.416,636.612C304.715,639.238 305.204,643.823 305.501,646.798C305.799,649.773 306.325,655.372 306.672,659.239C307.016,663.107 307.364,667.111 307.443,668.137C307.521,669.165 307.647,670.037 307.721,670.075C307.795,670.115 308.17,669.761 308.554,669.291C308.938,668.82 310.155,667.116 311.258,665.505L313.265,662.575L313.265,152.146C311.797,151.409 310.925,150.909 310.38,150.56C309.834,150.21 308.999,149.696 308.525,149.418C308.049,149.139 307.663,148.928 307.667,148.951ZM411.069,95.691C410.975,95.777 389.274,108.324 362.848,123.571C336.419,138.817 314.616,151.485 314.392,151.719L313.986,152.146C313.986,611.285 314.031,662.382 314.212,662.328C314.336,662.292 336.181,649.708 362.757,634.365C389.334,619.021 411.218,606.292 411.39,606.078C411.683,605.712 411.702,592.02 411.705,350.611C411.709,141.433 411.667,95.532 411.474,95.532C411.345,95.532 411.162,95.604 411.069,95.691ZM414.738,91.025C414.072,92.362 413.239,93.945 412.884,94.54L412.237,95.622C412.25,593.477 412.264,605.784 412.565,605.869C412.738,605.915 413.53,606.321 414.323,606.768C415.116,607.215 415.805,607.535 415.856,607.477C415.904,607.419 415.966,504.196 415.991,378.092C416.016,251.987 416.016,135.261 415.991,118.701L415.946,88.591L414.738,91.025ZM261.566,134.342C261.624,134.466 262.174,135.784 262.787,137.271C263.401,138.759 270.758,156.648 279.134,177.028C287.511,197.405 294.662,214.687 295.026,215.431C295.581,216.569 295.756,216.784 296.129,216.784C296.422,216.784 296.699,216.598 296.941,216.241C297.143,215.943 297.729,214.442 298.243,212.905C298.755,211.369 299.341,209.301 299.541,208.31C299.743,207.318 300.242,204.559 300.653,202.179C301.062,199.799 301.589,196.554 301.823,194.967C302.058,193.381 302.577,189.162 302.979,185.592C303.381,182.022 303.989,176.18 304.329,172.61C304.67,169.04 305.29,162.063 305.707,157.104L306.466,148.089C305.469,146.413 304.544,145.277 303.767,144.483C302.988,143.69 301.652,142.513 300.796,141.869C299.939,141.224 298.56,140.324 297.732,139.866C296.905,139.41 295.455,138.708 294.514,138.308C293.571,137.908 292.029,137.374 291.088,137.124C290.145,136.873 288.604,136.503 287.663,136.305C286.72,136.107 285.301,135.854 284.507,135.746C283.714,135.636 278.318,135.225 272.517,134.832C266.715,134.441 261.856,134.118 261.716,134.118C261.577,134.116 261.51,134.217 261.566,134.342ZM348.243,97.447C313.287,117.621 284.628,134.187 284.558,134.257C284.486,134.329 285.054,134.489 285.82,134.616C286.584,134.742 288.51,135.158 290.097,135.542C291.683,135.926 293.793,136.583 294.784,136.999C295.776,137.418 297.195,138.086 297.94,138.489C298.682,138.891 300.103,139.796 301.093,140.499C302.085,141.204 303.606,142.489 304.474,143.357C305.343,144.224 306.401,145.482 306.828,146.151C307.445,147.119 307.822,147.494 308.676,147.99C309.266,148.333 310.276,148.951 310.921,149.364C311.565,149.777 312.519,150.329 313.04,150.59L313.986,151.064C405.167,98.404 411.132,94.908 411.516,94.315C411.757,93.944 412.5,92.543 413.167,91.205C413.833,89.865 414.711,87.859 415.116,86.743L415.856,84.714C415.417,81.29 414.586,75.923 413.724,70.577C412.864,65.231 412.078,60.835 411.979,60.81C411.88,60.785 383.198,77.271 348.243,97.447ZM382.571,63.675C367.6,72.322 355.322,79.476 355.284,79.576C355.248,79.675 355.736,80.059 356.373,80.428C357.009,80.8 357.711,81.326 357.933,81.6C358.181,81.905 358.338,82.345 358.338,82.731C358.338,83.077 358.187,83.605 358.003,83.903C357.761,84.29 356.492,85.118 353.54,86.815C351.272,88.118 344.019,92.305 337.425,96.12C330.83,99.933 325.111,103.146 324.714,103.26C324.317,103.372 323.486,103.464 322.866,103.464C322.246,103.465 321.314,103.352 320.793,103.215C320.272,103.076 319.237,102.616 318.494,102.191L317.142,101.417C316.303,101.911 304.099,108.963 289.478,117.408C263.246,132.562 262.906,132.766 263.605,132.894C263.995,132.966 268.248,133.272 273.058,133.574C277.867,133.875 282.127,134.143 282.524,134.169C283.189,134.214 288.243,131.334 347.432,97.191C382.735,76.826 411.7,60.087 411.799,59.993C411.918,59.878 411.808,58.747 411.471,56.627C411.189,54.869 410.755,52.296 410.503,50.908C410.252,49.52 409.989,48.288 409.918,48.169C409.832,48.025 400.95,53.061 382.571,63.675Z" style="fill:rgb(254,206,7);fill-rule:nonzero;"/>
    </g>
</svg>
