<?xml version="1.0" encoding="UTF-8" standalone="no"?>
<!DOCTYPE svg PUBLIC "-//W3C//DTD SVG 1.1//EN" "http://www.w3.org/Graphics/SVG/1.1/DTD/svg11.dtd">
<svg width="100%" height="100%" viewBox="0 0 800 600" version="1.1" xmlns="http://www.w3.org/2000/svg" xmlns:xlink="http://www.w3.org/1999/xlink" xml:space="preserve" xmlns:serif="http://www.serif.com/" style="fill-rule:evenodd;clip-rule:evenodd;stroke-linejoin:round;stroke-miterlimit:2;">
    <g id="left" transform="matrix(-0.928521,0,0,0.928521,742.817,62.2865)">
        <path id="rightbackground" d="M591.903,-21.362L800,0L800,579.366L738.512,578.494C738.514,578.368 738.503,578.239 738.48,578.11L715.624,451.551C715.611,451.475 715.594,451.399 715.572,451.324L715.477,451.062L677.288,362.004L591.903,-21.362ZM621.385,549.311C621.482,548.932 621.468,548.521 621.322,548.127L577.483,429.516L711.929,453.601L734.382,577.926L621.385,549.311ZM483.045,185.995L593.616,484.704L537.102,482.488C537.109,482.32 537.094,482.149 537.057,481.977L472.27,189.092L483.045,185.995ZM468.377,190.01L533.037,482.328L455.95,479.305L400,403.713L291.608,338.577L255.648,250.647L257.705,239.707L468.377,190.01ZM535.469,315.849L575.874,425.165L710.349,449.254L673.886,364.219L535.469,315.849ZM587.608,-20.271C587.608,-20.127 592.211,0.29 592.244,0.437L672.639,359.546L533.671,310.983L447.856,78.808C447.794,78.641 447.713,78.487 447.614,78.348L558.634,0L587.608,-20.271Z" style="fill:rgb(119,118,123);"/>
        <path id="greenright2" d="M684.352,497.822C686.019,496.978 690.132,496.138 691.907,497.638C693.683,499.138 695.174,504.87 695.005,506.821C694.866,508.424 692.241,509.615 690.892,509.347C689.543,509.079 688.412,506.32 686.913,505.212C685.415,504.105 682.329,503.933 681.902,502.701C681.475,501.469 682.728,498.644 684.352,497.822ZM649.82,495.04C648.266,493.867 643.866,490.795 642.261,490.973C640.655,491.151 640.072,494.827 640.184,496.107C640.294,497.353 642.064,497.761 642.934,498.658C643.821,499.573 644.208,501.693 645.506,501.596C646.947,501.488 650.862,499.105 651.581,498.012C652.214,497.05 650.739,495.734 649.82,495.04ZM642.998,448.463C644.388,447.523 650.207,447.641 651.734,448.753C653.262,449.865 652.879,453.662 652.162,455.133C651.446,456.603 648.898,457.698 647.437,457.575C645.975,457.452 644.133,455.912 643.393,454.394C642.653,452.875 641.607,449.403 642.998,448.463ZM690.538,417.325C691.897,418.364 692.717,421.746 694.046,421.953C695.375,422.16 698.418,420.433 698.512,418.568C698.613,416.567 696.746,411.113 694.652,409.949C692.557,408.785 687.405,410.623 685.945,411.585C684.794,412.342 685.126,414.761 685.891,415.718C686.657,416.675 689.236,416.33 690.538,417.325ZM629.487,378.791C631.403,377.896 636.298,377.142 639.106,378.689C642.428,380.519 647.479,386.497 649.422,389.773C650.897,392.261 651.668,396.942 650.763,398.346C649.859,399.75 645.761,398.958 643.995,398.197C642.23,397.436 641.368,394.344 640.171,393.781C639.111,393.283 637.761,395.226 636.814,394.821C635.867,394.415 635.546,392.138 634.489,391.349C633.432,390.56 631.434,391.107 630.47,390.086C629.325,388.871 627.778,385.943 627.614,384.061C627.453,382.204 627.799,379.58 629.487,378.791ZM621.42,335.995C622.682,336.699 623.644,339.511 625.053,339.403C626.462,339.295 630.155,337.427 629.872,335.346C629.559,333.038 625.238,327.204 623.172,325.555C621.687,324.37 618.737,324.569 617.474,325.451C616.21,326.332 615.591,329.224 615.591,330.846C615.592,332.422 616.506,334.323 617.478,335.181C618.449,336.039 620.248,335.342 621.42,335.995ZM587.932,303.825C588.596,301.25 591.049,297.153 593.507,295.786C595.965,294.419 600.649,294.724 602.681,295.623C604.607,296.475 605.469,299.082 605.697,301.176C605.926,303.274 604.916,306.058 604.052,308.21C603.199,310.334 601.152,312.286 600.513,314.092C599.962,315.652 601.32,318.142 600.219,319.047C599.119,319.953 595.199,320.252 593.909,319.527C592.619,318.801 592.736,316.058 592.478,314.695C592.271,313.598 592.856,311.925 592.363,311.348C591.871,310.771 590.004,312.048 589.523,311.231C588.784,309.977 587.302,306.27 587.932,303.825ZM647.553,310.09C647.165,308.466 650.143,307.677 651.794,307.327C654.036,306.852 659.21,306.715 661.006,307.238C662.155,307.572 662.78,309.288 662.573,310.466C662.288,312.088 660.706,315.873 659.297,316.974C657.937,318.037 655.609,317.945 654.119,317.072C652.162,315.925 647.94,311.714 647.553,310.09ZM570.183,228.846C570.495,226.821 571.345,224.178 573.294,223.543C575.605,222.788 582.258,223.138 584.051,224.321C585.809,225.48 583.917,228.969 584.051,230.638C584.152,231.894 584.54,233.113 584.853,234.334C585.211,235.729 586.838,237.519 586.198,239.008C585.518,240.588 582.742,242.945 580.776,243.818C578.83,244.681 575.349,245.363 574.404,244.245C573.459,243.126 575.614,238.467 575.108,237.107C574.658,235.895 572.03,237.193 571.368,236.082C570.547,234.705 569.862,230.936 570.183,228.846ZM598.633,176.791C598.46,174.655 597.668,169.629 599.597,168.696C601.527,167.764 607.645,170.198 610.211,171.198C612.051,171.915 614.895,172.724 614.993,174.697C615.104,176.951 612,182.25 610.878,184.724C610.122,186.389 609.116,188.139 608.258,189.543C607.492,190.796 607.129,192.705 605.73,193.15C603.605,193.826 597.177,194.676 595.506,193.598C593.834,192.52 594.846,188.696 595.7,186.681C596.555,184.667 600.143,183.162 600.631,181.513C601.117,179.875 598.77,178.495 598.633,176.791ZM696.562,181.3C696.853,179.145 701.985,173.517 703.965,172.734C705.799,172.009 707.231,175.15 708.442,176.604C709.636,178.036 712.269,179.944 711.232,181.454C710.195,182.963 704.666,185.688 702.221,185.662C699.839,185.637 696.272,183.454 696.562,181.3ZM590.163,161.267C592.218,160.229 597.722,159.982 598.674,162.259C599.625,164.537 596.759,172.422 595.872,174.932C595.488,176.021 594.422,177.395 593.356,177.314C592.29,177.233 590.475,175.704 589.475,174.444C588.306,172.973 586.231,170.684 586.345,168.488C586.46,166.292 588.109,162.305 590.163,161.267ZM594.606,110.619C596.382,111.136 599.604,113.636 602.278,114.402C604.952,115.167 609.259,114.434 610.65,115.211C611.771,115.838 611.26,117.95 610.62,119.064C609.428,121.135 604.922,125.523 603.5,127.64C602.689,128.846 603.351,131.05 602.085,131.763C600.603,132.598 595.852,134.449 594.606,132.651C593.359,130.854 594.94,123.563 594.606,120.979C594.421,119.551 593.027,118.527 592.603,117.15C592.105,115.537 591.286,112.385 591.619,111.296C591.919,110.321 593.626,110.333 594.606,110.619ZM686.319,115.6C686.527,114.428 690.483,122.162 693.431,121.93C696.38,121.698 702.245,112.799 704.007,114.207C705.77,115.615 705.978,127.918 704.007,130.378C702.036,132.838 695.13,131.429 692.182,128.966C689.234,126.503 686.111,116.773 686.319,115.6ZM579.837,101.952C579.727,99.56 582.867,92.03 581.622,89.774C580.377,87.518 575.013,86.99 572.368,88.418C569.724,89.846 566.354,94.67 565.755,98.342C565.155,102.014 568.047,107.578 568.771,110.45C569.203,112.161 568.379,115.953 570.102,115.574C572.399,115.068 580.521,109.323 582.552,107.415C583.353,106.662 582.739,105.037 582.286,104.127C581.834,103.216 579.888,103.043 579.837,101.952ZM606.665,15.999C607.293,15.31 608.719,16.019 609.391,15.372C610.493,14.311 610.973,9.792 613.279,9.631C615.59,9.47 620.925,12.953 623.254,14.407C624.842,15.398 626.34,16.715 627.25,18.351C628.445,20.497 630.615,25.137 630.421,27.285C630.245,29.232 627.96,30.68 626.086,31.236C624.075,31.832 620.935,30.753 618.358,30.86C615.761,30.967 612.897,31.689 610.501,31.882C608.335,32.056 605.496,33.312 603.984,32.017C602.471,30.722 600.979,26.782 601.426,24.112C601.873,21.442 605.337,17.456 606.665,15.999Z" style="fill:rgb(21,158,60);"/>
        <path id="greenright1" d="M502.424,446.667C501.635,446.667 499.847,447.399 499.332,448.068C498.816,448.737 498.849,450.245 499.332,450.68C499.815,451.116 501.44,451.116 502.229,450.68C503.018,450.245 504.033,448.737 504.066,448.068C504.098,447.399 503.143,446.667 502.424,446.667ZM479.073,445.566C478.217,445.155 475.311,445.979 474.864,446.556C474.417,447.132 475.851,448.34 476.393,449.028C476.885,449.653 477.514,450.682 478.115,450.68C478.717,450.679 479.846,449.841 480,449.018C480.16,448.165 479.929,445.976 479.073,445.566ZM481.137,424.054C480.301,423.87 478.498,424.156 478.024,424.526C477.558,424.889 478.081,425.724 478.289,426.277C478.559,426.998 479.2,428.554 479.646,428.855C480.068,429.14 480.596,428.434 480.965,428.083C481.532,427.546 483.014,426.306 483.043,425.634C483.071,424.963 481.943,424.232 481.137,424.054ZM509.663,416.706C508.579,416.632 506.248,417.766 506.051,418.579C505.853,419.393 507.397,421.512 508.48,421.586C509.564,421.66 512.355,419.837 512.552,419.024C512.749,418.21 510.747,416.78 509.663,416.706ZM490.763,409.938C490.116,409.423 487.009,410.887 487.034,411.694C487.059,412.501 490.292,415.073 490.913,414.78C491.535,414.487 491.409,410.452 490.763,409.938ZM469.934,385.106C468.57,384.584 465.396,386.894 464.769,388.131C464.143,389.367 464.813,392.002 466.177,392.524C467.541,393.046 472.327,392.5 472.954,391.264C473.58,390.027 471.298,385.628 469.934,385.106ZM495.714,385.202C494.766,384.555 490.127,387.367 490.147,388.576C490.167,389.786 494.906,393.021 495.834,392.459C496.762,391.896 496.662,385.849 495.714,385.202ZM495.317,365.025C494.839,364.606 493.765,365.896 494.061,366.458C494.474,367.242 497.583,369.968 497.793,369.73C498.002,369.491 495.939,365.57 495.317,365.025ZM461.559,329.297C460.625,328.743 458.648,329.23 458.457,330.3C458.255,331.44 459.053,335.371 460.344,336.136C461.635,336.901 465.999,336.031 466.202,334.891C466.404,333.752 462.85,330.063 461.559,329.297ZM468.572,298.489C467.565,297.856 464.717,300.913 465.155,302.158C465.593,303.403 470.632,306.57 471.202,305.958C471.771,305.347 469.58,299.122 468.572,298.489ZM472.413,271.866C470.835,271.284 467.655,275.103 467.763,276.468C467.871,277.834 471.482,279.478 473.06,280.059C474.365,280.54 477.339,281.321 477.231,279.956C477.123,278.59 473.991,272.447 472.413,271.866ZM465.565,217.858C464.157,216.233 459.616,225.226 458.426,227.711C457.698,229.232 457.618,231.29 458.426,232.769C459.31,234.387 462.324,236.635 463.731,237.416C464.647,237.925 466.22,238.278 466.872,237.459C472.196,230.764 466.973,219.482 465.565,217.858ZM451.399,201.421C450.413,200.276 447.92,204.549 447.358,205.92C446.879,207.087 447.202,208.689 448.025,209.644C449.011,210.79 452.799,214.196 453.274,212.793C455.461,206.334 452.385,202.567 451.399,201.421Z" style="fill:rgb(21,158,60);"/>
        <path id="orangeright2" d="M708.483,548.898C712.96,548.333 718.645,557.511 716.11,559.831C714.359,561.433 711.812,559.564 709.511,557.05C707.102,554.332 705.547,549.268 708.483,548.898ZM653.737,521.855C648.416,519.278 648.411,520.929 648.837,526.235C650.019,529.026 650.861,530.257 653.184,530.63C655.858,527.94 655.797,524.992 653.737,521.855ZM741.954,503.995C742.748,503.285 745.172,504.584 746.449,504.38C747.618,504.193 748.715,502.514 749.615,502.768C750.516,503.023 751.89,504.622 751.853,505.906C751.808,507.484 750.731,511.173 749.344,512.238C747.957,513.303 744.807,512.896 743.53,512.296C742.295,511.716 741.939,509.982 741.685,508.641C741.422,507.258 741.16,504.706 741.954,503.995ZM740.615,435.416C742.52,434.563 744.94,436.184 746.639,436.303C748.025,436.4 750.242,435.191 750.805,436.128C751.368,437.064 750.038,440.106 750.017,441.923C749.997,443.641 751.569,446.497 750.68,447.033C749.791,447.57 746.595,445.408 744.684,445.142C742.876,444.89 739.711,446.126 739.217,445.437C738.536,444.489 741.675,441.717 741.423,440.58C740.683,437.237 739.54,436.89 740.615,435.416ZM667.085,423.953C655.727,416.168 648.802,409.633 646.542,411.52C642.904,414.557 647.863,429.7 655.551,436.448C661.12,442.202 667.724,445.736 675.668,446.392C682.679,446.878 688.188,445.763 688.237,438.831C688.613,434.948 686.375,432.601 681.92,431.557C676.975,430.404 672.03,427.827 667.085,423.953ZM690.034,349.019C685.418,352.766 684.12,356.348 684.593,359.843C685.833,365.509 689.075,368.704 695.649,367.788C701.699,367.086 704.695,363.695 703.874,356.941C704.196,353.195 701.943,350.6 697.928,348.794C695.296,347.647 692.665,347.58 690.034,349.019ZM708.993,298.313C702.447,299.949 699.959,303.87 700.053,309.245C701.982,316.322 706.108,318.961 711.93,318.174C716.931,317.513 719.935,314.105 720.53,307.379C720.069,302.06 717.282,298.32 708.993,298.313ZM636.499,262.592C639.929,262.184 642.098,263.732 643.186,266.955C643.079,269 642.022,270.623 639.847,271.749C636.829,272.567 634.821,271.292 633.92,267.719C633.46,265.808 633.773,264.015 636.499,262.592ZM743.393,229.796C750.849,229.565 755.209,233.175 755.952,241.273C754.038,246.062 750.453,249.36 744.333,250.399C737.816,249.918 733.932,247.188 733.9,241.171C734.047,234.664 737.711,231.322 743.393,229.796ZM549.941,225.733C547.48,225.723 545.891,226.759 545.958,229.786C545.956,232.179 547.063,233.54 549.792,233.391C550.945,233.005 551.89,232.128 552.217,229.786C552.362,227.613 551.596,226.269 549.941,225.733ZM628.502,194.625C634.798,195.009 638.482,198.739 639.676,205.663C638.952,211.043 635.724,214.042 629.778,214.459C623.815,214.585 620.124,211.06 618.251,204.615C617.941,199.361 620.76,195.722 628.502,194.625ZM632.92,86.004C638.595,86.934 639.704,90.329 640.217,95.929C639.019,101.037 638.559,103.842 632.477,104.904C627.087,104.929 624.343,101.978 623.713,96.647C623.306,90.912 626.652,87.538 632.92,86.004ZM556.49,74.361C561.223,80.872 560.5,87.611 555.964,94.509C550.194,95.686 546.322,92.851 544.347,86.004C546.026,78.442 549.439,73.575 556.49,74.361ZM582.629,46.62C586.597,48.141 586.771,61.566 581.123,64.144C577.012,63.278 574.704,60.466 574.2,55.708C573.842,49.328 577.451,47.076 582.629,46.62ZM540.13,27.424C542.236,25.89 547.662,27.717 547.597,25.112C547.528,22.347 546.689,10.594 539.716,10.834C532.608,10.844 528.672,14.311 528.059,21.401C527.278,26.413 531.648,38.775 534.453,34.688C535.725,32.834 537.939,29.02 540.13,27.424Z" style="fill:rgb(235,76,72);"/>
        <path id="orangeright1" d="M360.965,380.256C361.029,387.292 362.091,394.134 367.425,400.146C376.711,408.124 383.256,410.681 385.529,404.789L388.253,396.611L360.965,380.256ZM364.242,365.798C360.715,362.477 356.888,354.606 354.278,355.217C351.668,355.828 346.001,356.745 348.583,369.465C349.862,373.421 353.421,375.486 359.368,375.57C364.189,376.935 367.679,384.47 370.587,384.614C373.494,384.759 375.401,382.584 376.813,376.438C376.105,364.067 367.998,369.335 364.242,365.798ZM319.244,336.456C321.214,337.662 323.843,346.313 334.005,344.671C339.002,343.863 337.029,354.624 336.055,357.357C335.081,360.089 330.195,363.144 328.162,361.066C325.522,358.366 316.179,354.963 314.693,350.862C313.207,346.76 316.362,334.691 319.244,336.456ZM287.793,285.614C306.992,296.653 310.53,328.636 293.014,336.456C285.829,333.38 278.395,330.74 272.229,330.547C266.573,329.899 257.741,330.27 247.395,331.127C241.017,327.222 238.874,321.194 241.328,312.86C250.457,310.7 259.55,308.364 267.435,300C273.903,292.39 280.652,287.269 287.793,285.614ZM341.3,293.513C346.783,293.032 349.352,297.295 351.104,302.889C351.281,309.368 352.901,314.26 356.264,317.237C360.522,320.751 362.458,324.93 359.806,330.425C357.284,335.603 354.194,334.407 350.844,330.309L341.905,315.399C338.375,311.255 336.94,306.312 337.181,300.731C336.867,297.733 337.922,295.215 341.3,293.513ZM333.465,263.436C334.887,270.576 329.814,285.54 328.202,285.614C328.004,288.221 328.504,290.847 330.54,293.513C337.95,292.369 342.933,289.261 343.882,282.887C344.215,278.64 343.297,274.423 340.636,270.25C338.375,267.521 334.738,260.104 333.465,263.436ZM380.108,254.558C375.464,249.593 372.704,240.567 369.542,243.261C364.204,247.282 365.148,252.243 366.149,258.808C367.914,266.367 371.134,268.922 375.166,268.686C383.045,269.479 387.26,266.556 388.253,260.367C387.566,256.262 382.386,256.994 380.108,254.558ZM257.928,239.707C260.188,242.964 258.631,249.858 255.391,250.647C254.475,249.65 253.493,248.733 252.546,248.391C251.709,247.979 250.31,247.627 248.644,247.302C247.909,246.17 247.972,244.799 248.903,243.167C250.466,243.158 252.035,243.111 253.813,241.738C255.32,240.454 256.708,239.707 257.928,239.707ZM351.76,238.334C349.642,234.179 345.431,229.42 346.699,223.586C351.867,215.439 361.945,213.645 374.643,215.242C380.856,218.321 384.151,222.433 385.174,227.349C385.174,227.349 387.009,236.268 384.553,238.309C382.097,240.35 374.22,237.117 370.437,239.595C366.482,242.186 362.52,248.724 359.407,248.514C356.295,248.304 353.688,242.115 351.76,238.334Z" style="fill:rgb(235,76,72);"/>
        <path id="blackright1" d="M582.634,428.225C582.634,428.225 582.577,444.836 584.237,451.637C585.762,457.887 588.15,464.381 592.591,469.034C598.11,474.817 612.127,483.486 617.351,486.333C619.279,487.383 621.868,486.861 623.934,486.117C630.288,483.83 636.132,466.793 633.729,466.071L582.634,428.225ZM544.042,350.779C544.042,350.779 539.372,368.828 541.96,374.541C544.548,380.254 558.109,388.782 558.109,388.782L544.042,350.779ZM537.57,244.808C541.25,245.672 543.39,260.533 547.078,263.687C550.275,266.422 556.171,262.052 559.699,263.735C563.227,265.419 566.65,269.689 568.245,273.787C571.175,281.314 568.502,302.228 560.835,308.627C555.303,313.244 545.225,315.086 539.562,312.463C533.898,309.84 529.507,298.473 526.857,292.888C524.814,288.584 523.918,283.715 523.661,278.957C523.35,273.226 522.676,264.191 524.994,258.499C527.312,252.808 533.889,243.943 537.57,244.808ZM492.417,184.142C490.559,185.936 492.741,199.891 493.356,206.399C493.895,212.101 498.807,217.713 502.358,221.034C505.62,224.083 511.211,225.094 514.666,226.322C517.39,227.291 520.838,230.225 523.086,228.407C528.971,223.646 542.139,196.551 539.117,189.395C536.704,183.68 524.932,190.632 517.826,191.041C507.065,191.662 495.881,180.797 492.417,184.142ZM465.966,65.397C461.282,68.794 461.822,81.831 467.628,84.523C475.035,87.957 505.723,89.4 510.407,86.004C515.09,82.607 503.136,67.578 495.729,64.144C488.322,60.709 470.649,62 465.966,65.397Z" style="fill:rgb(46,45,50);"/>
        <path id="yellowright1" d="M440.694,455.078C443.398,451.561 454.024,441.276 457.444,438.609C458.443,437.83 460.476,438.047 461.216,439.075C462.392,440.709 463.661,445.789 464.5,448.411C465.174,450.517 466.599,452.845 466.251,454.809C465.903,456.773 464.146,458.834 462.412,460.197C459.958,462.126 454.358,465.385 451.525,466.388C449.605,467.067 447.126,467.319 445.416,466.212C443.698,465.099 442.007,461.568 441.22,459.712C440.613,458.281 439.746,456.311 440.694,455.078ZM413.648,409.038C416.753,410.111 426.271,417.507 430.598,422.819C434.854,428.042 438.937,437.589 439.614,440.909C439.966,442.634 436.256,443.486 434.661,442.741C432.08,441.536 427.147,437.189 424.125,433.678C420.344,429.284 413.718,420.485 411.971,416.379C410.989,414.069 411.276,408.218 413.648,409.038ZM404.109,390.939C400.718,387.937 401.132,377.361 399.035,375.636C396.938,373.912 392.783,377.87 391.525,380.593C390.045,383.797 389.271,390.164 390.156,394.859C391.316,401.019 404.949,408.885 411.418,407.433C416.174,406.366 420.597,396.399 419.378,393.65C418.16,390.901 407.499,393.941 404.109,390.939ZM437.799,338.305C434.247,337.733 429.39,338.99 426.728,340.931C424.065,342.872 422.281,347.14 421.823,349.949C421.388,352.624 422.535,355.496 423.984,357.786C425.732,360.549 428.744,364.878 432.314,366.531C435.884,368.183 442.797,367.644 445.406,367.699C446.304,367.718 447.966,366.86 447.966,366.86L448.04,344.367C448.04,344.367 441.351,338.878 437.799,338.305ZM424.089,331.908C425.277,333.79 427.062,337.244 428.861,338.166C430.661,339.088 433.554,338.509 434.885,337.44C436.215,336.371 435.204,332.905 436.844,331.752C439.037,330.21 445.786,329.662 448.04,328.187C449.651,327.132 451.184,324.643 450.367,322.899C448.966,319.91 442.66,312.292 439.637,310.252C437.588,308.869 434.349,309.382 432.23,310.657C429.398,312.361 424.397,317.77 422.647,320.473C421.476,322.282 421.49,324.968 421.73,326.874C421.962,328.713 423.099,330.341 424.089,331.908ZM404.682,296.74C407.233,293.409 411.857,284.728 412.284,280.012C412.663,275.822 409.15,270.301 407.245,268.441C405.717,266.95 401.961,267.291 400.854,268.855C399.748,270.419 401.386,275.554 400.607,277.825C399.913,279.851 398.066,281.462 396.183,282.481C394.186,283.563 390.101,282.993 388.623,284.314C387.144,285.634 386.973,288.367 387.313,290.405C387.653,292.443 389.054,294.943 390.665,296.542C392.276,298.142 394.644,299.967 396.98,300C399.317,300.033 402.987,298.954 404.682,296.74ZM477.39,285.744C476.422,286.28 473.896,287.673 474.193,289.028C474.489,290.382 478.2,294.407 479.168,293.871C480.136,293.335 480.296,287.166 480,285.811C479.814,284.961 478.151,285.322 477.39,285.744ZM397.275,258.64C400.534,260.624 407.351,264.271 411.612,263.355C415.874,262.44 421.159,256.198 422.845,253.147C424.163,250.762 423.247,247.312 421.73,245.049C419.974,242.43 416.308,238.008 412.312,237.435C407.87,236.797 398.453,238.889 395.078,241.226C392.155,243.249 391.693,248.551 392.059,251.453C392.426,254.356 394.746,257.101 397.275,258.64ZM433.694,214.148C432.053,213.289 429.198,213.996 428.054,214.713C426.943,215.408 426.406,217.279 426.825,218.448C427.243,219.617 429.221,221.048 430.563,221.725C431.868,222.384 433.655,222.822 434.878,222.513C436.1,222.203 438.085,221.192 437.897,219.868C437.7,218.473 435.334,215.007 433.694,214.148Z" style="fill:rgb(220,206,107);"/>
        <path id="yellowright2" d="M721.839,480.144C723.572,476.533 728.579,471.615 731.949,467.35C735.672,462.64 740.635,454.768 744.174,451.88C746.551,449.942 750.59,449.316 753.186,450.025C755.783,450.734 758.662,453.753 759.754,456.133C760.846,458.513 759.012,461.679 759.736,464.305C760.662,467.667 764.952,472.984 765.311,476.301C765.62,479.157 763.71,481.988 761.89,484.21C759.043,487.686 752.627,494.259 748.229,497.156C744.478,499.626 739.222,501.45 735.504,501.589C732.094,501.716 728.246,500.082 725.921,497.987C723.596,495.891 722.233,491.988 721.552,489.014C720.893,486.13 720.559,482.811 721.839,480.144ZM746.906,469.291C744.964,469.686 740.721,474.244 741.397,475.669C742.074,477.094 749.025,478.238 750.967,477.843C752.6,477.511 753.727,474.724 753.05,473.298C752.373,471.873 748.848,468.895 746.906,469.291ZM743.156,372.69C744.988,371.627 745.824,368.557 747.288,367.863C748.702,367.191 751.397,367.599 751.939,368.524C752.481,369.448 751.234,371.863 750.542,373.408C749.767,375.14 749.104,377.798 747.288,378.912C745.413,380.062 741.407,380.277 739.297,380.306C737.69,380.328 735.456,379.906 734.632,379.084C733.808,378.261 733.359,376.115 734.352,375.37C735.773,374.304 741,373.941 743.156,372.69ZM661.875,286.457C660.701,287.553 658.574,291.765 659.113,293.92C659.652,296.075 662.481,298.75 665.109,299.387C667.855,300.052 674.305,298.739 675.584,297.912C676.836,297.103 674.132,295.067 672.787,294.425C671.266,293.697 667.561,294.726 666.456,293.547C665.351,292.368 666.919,288.529 666.156,287.348C665.392,286.166 662.941,285.463 661.875,286.457ZM670.686,271.026C669.406,272.077 667.302,277.679 668.229,280.353C669.157,283.027 673.361,286.506 676.251,287.07C679.141,287.634 684.462,285.028 685.569,283.737C686.676,282.446 684.376,279.911 682.895,279.326C681.413,278.742 677.845,281.111 676.68,280.232C675.515,279.352 676.906,275.581 675.907,274.047C674.908,272.513 671.965,269.975 670.686,271.026ZM675.907,237.327C676.903,233.671 680.279,227.138 684.315,223.879C688.351,220.619 696.863,217.557 700.125,217.769C702.881,217.947 703.595,222.403 703.888,225.149C704.246,228.514 703.994,234.408 702.274,237.96C700.555,241.513 697.425,245.197 693.572,246.462C689.582,247.772 681.279,247.34 678.335,245.818C675.72,244.466 675.133,240.167 675.907,237.327ZM654.255,224.687C655.294,225.116 654.694,229.238 656.279,230.186C657.864,231.134 662.117,229.989 663.767,230.374C664.81,230.618 666.406,231.466 666.177,232.499C665.949,233.532 664.076,235.791 662.396,236.574C660.29,237.556 655.887,239.072 653.538,238.393C651.19,237.714 648.89,234.296 648.308,232.499C647.776,230.854 649.056,228.913 650.047,227.611C651.038,226.309 653.216,224.257 654.255,224.687ZM737.531,124.444C743.11,117.578 753.436,114.375 757.574,114.247C761.802,114.115 765.775,114.686 768.941,115.493C771.666,116.187 775.703,116.816 776.572,119.087C777.442,121.357 776.311,126.435 774.159,129.116C771.283,132.701 764.514,138.919 759.314,140.591C754.115,142.264 746.735,140.504 742.962,139.152C740.087,138.122 737.587,134.933 736.682,132.481C735.777,130.03 735.832,126.535 737.531,124.444ZM641.49,73.436C642.032,75.682 646.146,83.248 648.183,85.14C649.537,86.397 652.366,85.926 653.714,84.787C655.063,83.648 656.571,80.331 656.273,78.308C655.976,76.285 653.822,73.755 651.931,72.648C650.041,71.54 646.67,71.534 644.929,71.665C643.643,71.762 641.187,72.182 641.49,73.436ZM711.809,4.861C709.465,8.722 704.067,22.041 706.881,23.166C709.695,24.292 726.35,15.473 728.694,11.612C731.038,7.751 723.758,1.125 720.944,0C718.13,-1.125 713.599,1.912 711.809,4.861Z" style="fill:rgb(220,206,107);"/>
    </g>
    <g id="rightcover" transform="matrix(0.746478,0.0436917,-0.0436917,0.746478,536.242,144.922)">
        <path d="M385.165,576.506L250.501,595.293L195.981,592.541L-12.151,171.993L160,140.604L366.81,230.205L385.165,576.506Z" style="fill:rgb(34,34,34);"/>
    </g>
    <g id="right" transform="matrix(0.746478,0.0436917,-0.0436917,0.746478,536.242,144.922)">
        <g id="left1" serif:id="left" transform="matrix(-0.998291,0.0584305,0.0584305,0.998291,352.143,-20.3893)">
            <path d="M135.135,608.371L1.912,597.805L0.894,413.131C0.965,413.096 1.035,413.056 1.103,413.011L218.368,269.329L135.135,608.371M219.322,263.903L0.867,408.371L-0,251.023L197.659,151.288L219.322,263.903ZM374.912,170.768L336.755,260.741L223.185,262.805L201.39,149.512L374.912,170.768Z" style="fill:rgb(119,118,123);"/>
        </g>
        <g id="left2" serif:id="left" transform="matrix(-0.998291,0.0584305,0.0584305,0.998291,352.143,-20.3893)">
            <path d="M140.377,608.371L223.112,266.807L335.046,264.773L191.709,602.758L140.377,608.371" style="fill:rgb(119,118,123);"/>
        </g>
        <g id="blackleft1">
            <path d="M43.908,179.497C47.258,177.373 56.576,178.501 59.879,179.408C62.044,180.002 63.242,182.745 63.724,184.938C64.296,187.544 64.035,192.489 63.314,195.043C62.724,197.137 61.221,199.076 59.399,200.265C56.884,201.906 51.254,204.01 48.222,204.891C45.969,205.546 42.509,207.51 41.212,205.554C39.805,203.43 39.33,196.495 39.78,192.152C40.229,187.809 40.559,181.621 43.908,179.497Z" style="fill:rgb(46,45,50);"/>
            <path d="M184.143,533.96C181.961,534.231 180.47,538.159 180.706,539.591C180.941,541.023 184.301,541.633 185.556,542.552C186.551,543.28 187.779,544.046 188.237,545.101C188.695,546.155 187.3,548.115 188.302,548.877C189.321,549.651 192.422,550.402 194.352,549.749C196.297,549.09 199.845,546.917 199.976,544.926C200.107,542.935 197.498,539.437 195.138,537.803C192.499,535.975 186.549,533.662 184.143,533.96Z" style="fill:rgb(46,45,50);"/>
            <path d="M207.101,577.644C205.679,577.151 202.875,578.169 202.175,578.86C201.474,579.551 201.948,581.459 202.898,581.788C204.32,582.281 210.009,582.507 210.71,581.816C211.41,581.126 208.524,578.137 207.101,577.644Z" style="fill:rgb(46,45,50);"/>
            <path d="M270.903,574.674C269.765,575.069 266.745,578.62 266.47,579.882C266.211,581.072 268.115,582.646 269.252,582.251C270.39,581.856 273.021,578.777 273.296,577.514C273.56,576.304 272.041,574.28 270.903,574.674Z" style="fill:rgb(46,45,50);"/>
            <path d="M263.413,507.079C261.984,507.571 258.279,510.857 257.874,512.276C257.469,513.695 259.556,515.298 260.985,515.591C262.414,515.885 265.536,515.083 266.446,514.038C267.356,512.993 266.951,510.48 266.446,509.32C265.943,508.168 264.601,506.669 263.413,507.079Z" style="fill:rgb(46,45,50);"/>
            <path d="M276.138,472.375C274.139,472.782 270.928,475.486 269.886,477.551C268.844,479.616 269.693,482.61 269.886,484.765C270.059,486.701 270.061,489.112 271.043,490.48C272.025,491.847 274.097,493.567 275.777,492.971C277.77,492.265 281.981,489.217 282.998,486.24C284.015,483.263 283.024,477.419 281.881,475.108C280.94,473.208 278.137,471.967 276.138,472.375Z" style="fill:rgb(46,45,50);"/>
            <path d="M167.855,461.987C165.349,464.044 166.586,476.27 166.66,479.149C166.674,479.695 167.758,479.164 168.295,479.263C169.436,479.473 172.048,479.388 173.502,480.409C175.096,481.53 176.252,485.605 177.863,485.986C179.473,486.367 182.332,484.601 183.163,482.695C184.158,480.414 184.074,474.946 183.83,472.297C183.649,470.342 183.346,467.87 181.695,466.805C179.033,465.087 170.361,459.93 167.855,461.987Z" style="fill:rgb(46,45,50);"/>
            <path d="M199.876,389.307C197.459,391.131 196.596,395.48 196.948,398.236C197.3,400.992 199.602,403.957 201.988,405.844C204.922,408.163 211.572,411.998 214.547,412.154C217.058,412.285 218.682,409.012 219.839,406.78C221.116,404.318 222.323,400.089 222.208,397.381C222.101,394.881 220.939,392.209 219.145,390.527C217.352,388.845 214.225,387.467 211.447,387.291C208.235,387.088 202.292,387.482 199.876,389.307Z" style="fill:rgb(46,45,50);"/>
            <path d="M223.823,360.085C221.219,360.164 219.213,363.337 218.554,365.858C217.676,369.219 217.944,376.278 218.554,380.253C219.067,383.593 220.373,387.734 222.215,389.706C223.982,391.598 227.918,392.207 229.606,392.089C230.979,391.992 231.159,389.7 232.341,388.995C233.697,388.188 236.764,388.863 237.74,387.243C238.782,385.515 238.97,381.489 238.59,378.629C238.106,374.982 237.295,368.455 234.834,365.365C232.373,362.274 226.537,360.003 223.823,360.085Z" style="fill:rgb(46,45,50);"/>
            <path d="M120.975,421.052C119.927,419.765 116.605,419.211 115.526,419.624C114.448,420.037 114.05,422.308 114.503,423.529C114.956,424.751 117.029,426.319 118.246,426.955C119.305,427.509 121.354,428.332 121.809,427.348C122.264,426.364 122.022,422.339 120.975,421.052Z" style="fill:rgb(46,45,50);"/>
            <path d="M119.88,320.959C117.103,321.358 119.994,329.497 122.028,333.048C124.174,336.793 128.554,340.881 132.754,343.429C136.955,345.978 146.244,350.467 147.234,348.338C148.224,346.209 143.252,335.216 138.693,330.653C134.134,326.09 122.658,320.56 119.88,320.959Z" style="fill:rgb(46,45,50);"/>
            <path d="M252.011,414.881C254.028,412.083 261.053,404.814 264.592,402.699C267.072,401.217 270.872,400.542 273.244,402.19C276.332,404.336 281.364,411.641 283.116,415.573C284.504,418.687 285.916,423.139 283.76,425.78C280.534,429.731 268.97,440.33 263.758,439.282C258.547,438.234 254.448,423.556 252.49,419.489C251.82,418.098 251.108,416.134 252.011,414.881Z" style="fill:rgb(46,45,50);"/>
            <path d="M317.058,525.268C316.033,525.296 312.737,528.958 312.728,530.415C312.719,531.872 315.977,534.039 317.002,534.011C318.028,533.983 318.872,531.65 318.881,530.248C318.89,528.791 318.084,525.241 317.058,525.268Z" style="fill:rgb(46,45,50);"/>
            <path d="M318.881,482.812C318.368,482.632 315.805,485.293 315.805,486.005C315.805,486.718 318.368,487.619 318.881,487.087C319.394,486.555 319.394,482.992 318.881,482.812Z" style="fill:rgb(46,45,50);"/>
            <path d="M361.414,416.491C360.387,416.357 357.498,418.624 357.014,419.489C356.582,420.261 357.631,421.567 358.508,421.682C359.535,421.816 362.689,421.157 363.173,420.292C363.657,419.427 362.44,416.625 361.414,416.491Z" style="fill:rgb(46,45,50);"/>
            <path d="M312.728,414.801C312.11,415.315 313.206,417.488 312.728,418.638C312.251,419.787 310.045,420.82 309.863,421.699C309.681,422.578 310.707,424.084 311.637,423.914C312.915,423.679 316.735,421.686 317.535,420.292C318.335,418.899 317.239,416.469 316.438,415.553C315.636,414.638 313.346,414.287 312.728,414.801Z" style="fill:rgb(46,45,50);"/>
            <path d="M307.085,375.105C306.136,375.35 304.207,378.183 304.152,379.174C304.097,380.165 305.808,381.296 306.756,381.051C307.705,380.805 309.788,378.692 309.842,377.701C309.897,376.71 308.033,374.859 307.085,375.105Z" style="fill:rgb(46,45,50);"/>
            <path d="M111.113,256.447C118.704,253.43 131.174,230.889 131.066,224.05C130.958,217.212 116.056,216.694 110.465,215.414C106.247,214.449 101.256,214.191 97.52,216.373C93.656,218.631 90.065,225.113 87.277,228.962C84.862,232.296 81.082,237.271 80.789,239.47C80.549,241.267 83.936,241.269 85.518,242.155C90.572,244.984 103.521,259.464 111.113,256.447Z" style="fill:rgb(46,45,50);"/>
        </g>
        <g id="yellowleft1">
            <path d="M355.745,513.555C356.536,511.733 359.443,516.071 361.389,516.071C363.334,516.071 365.937,513.204 367.416,513.555C368.895,513.906 370.151,516.371 370.265,518.177C370.456,521.21 369.727,528.639 368.563,531.756C367.705,534.053 365.63,536.169 363.282,536.878C360.454,537.731 352.699,538.524 351.592,536.878C350.485,535.231 355.993,530.64 356.641,527C357.333,523.112 354.953,515.376 355.745,513.555Z" style="fill:rgb(220,206,107);"/>
            <path d="M359.379,382.886C357.122,382.188 353.917,386.728 352.624,389.636C351.302,392.612 350.071,398.914 351.445,400.737C352.82,402.559 358.416,401.722 360.87,400.57C363.324,399.419 366.409,396.676 366.169,393.827C365.92,390.88 361.637,383.584 359.379,382.886Z" style="fill:rgb(220,206,107);"/>
            <path d="M359.807,354.1C357.485,354.541 356.939,362.296 356.366,364.766C356.052,366.115 355.777,367.667 356.366,368.919C357.116,370.516 358.758,375.378 360.87,374.347C363.192,373.213 370.472,365.492 370.295,362.117C370.118,358.742 362.128,353.658 359.807,354.1Z" style="fill:rgb(220,206,107);"/>
            <path d="M326.272,288.282L326.403,305.965C326.403,305.965 339.796,317.946 343.641,319.098C346.363,319.914 348.649,315.599 349.472,312.879C350.482,309.538 350.06,302.698 349.704,299.056C349.433,296.28 349.874,292.194 347.339,291.028C343.434,289.232 326.272,288.282 326.272,288.282Z" style="fill:rgb(220,206,107);"/>
            <path d="M357.1,238.968C355.742,238.873 353.282,240.814 352.717,242.007C352.153,243.199 352.891,245.374 353.714,246.123C354.537,246.872 356.462,246.093 357.655,246.5C358.847,246.908 360.148,247.517 360.87,248.567C361.622,249.66 361.279,252.415 362.165,253.056C363.05,253.698 365.584,253.632 366.182,252.414C366.852,251.051 367.067,246.515 366.182,244.875C365.297,243.235 362.384,243.561 360.87,242.576C359.412,241.628 358.459,239.063 357.1,238.968Z" style="fill:rgb(220,206,107);"/>
        </g>
        <g id="greenleft1">
            <path d="M334.227,410.222C331.654,410.796 329.147,413.534 328.131,415.447C327.153,417.288 327.525,420.002 328.131,421.699C328.731,423.379 330.085,425.03 331.767,425.627C333.839,426.362 338.2,427.197 340.563,426.108C342.925,425.019 345.443,421.443 345.944,419.092C346.444,416.742 345.52,413.483 343.567,412.004C341.614,410.526 336.8,409.648 334.227,410.222Z" style="fill:rgb(21,158,60);"/>
            <path d="M301.55,386.695C299.665,387.356 297.521,391.874 296.866,393.713C296.409,394.994 296.987,396.518 297.617,397.724C298.363,399.149 299.795,401.671 301.339,402.264C302.883,402.858 305.984,402.931 306.883,401.284C308.022,399.197 309.062,392.176 308.174,389.744C307.339,387.461 303.435,386.033 301.55,386.695Z" style="fill:rgb(21,158,60);"/>
            <path d="M331.767,333.724C329.51,334.202 325.82,336.861 324.065,338.263C322.816,339.26 321.04,340.934 321.237,342.134C321.435,343.334 324.526,344.311 325.25,345.463C325.889,346.478 324.454,348.638 325.582,349.046C327.029,349.571 331.928,349.834 333.932,348.608C335.936,347.383 336.991,343.897 337.604,341.696C338.166,339.673 338.58,336.726 337.607,335.398C336.634,334.069 333.748,333.305 331.767,333.724Z" style="fill:rgb(21,158,60);"/>
            <path d="M256.2,301.159C257.318,296.926 266.262,289.824 269.294,288.956C272.07,288.162 274.243,293.07 274.397,295.953C274.562,299.045 272.254,304.443 270.286,307.51C268.431,310.399 264.935,315.41 262.587,314.352C260.24,313.293 255.082,305.391 256.2,301.159Z" style="fill:rgb(21,158,60);"/>
            <path d="M283.289,222.027C285.576,220.938 290.19,221.823 293.01,220.169C295.829,218.515 297.624,212.996 300.207,212.103C302.79,211.21 306.769,212.478 308.508,214.813C310.571,217.582 312.585,224.936 312.584,228.719C312.583,231.95 310.834,235.275 308.503,237.513C305.502,240.392 298.112,245.895 294.581,245.997C291.05,246.1 289.533,240.927 287.316,238.129C284.768,234.913 279.961,229.382 279.29,226.699C278.793,224.71 281.438,222.907 283.289,222.027Z" style="fill:rgb(21,158,60);"/>
            <path d="M290.148,513.558C288.86,513.705 286.997,519.333 285.956,521.824C285.058,523.973 284.123,526.66 283.904,528.502C283.729,529.969 283.956,531.563 284.64,532.873C285.371,534.269 287.065,536.893 288.285,536.878C289.504,536.862 291.367,534.515 291.956,532.777C292.856,530.121 293.985,524.145 293.684,520.942C293.429,518.225 291.436,513.411 290.148,513.558Z" style="fill:rgb(21,158,60);"/>
            <path d="M332.705,487.022C330.985,488.189 332.027,493.887 332.705,495.826C333.25,497.386 335.186,498.2 336.774,498.658C338.791,499.241 343.214,500.153 344.808,499.32C346.403,498.486 346.639,495.407 346.342,493.659C346.045,491.91 344.781,489.682 343.025,488.827C340.752,487.721 334.425,485.856 332.705,487.022Z" style="fill:rgb(21,158,60);"/>
            <path d="M321.829,451.48C320.378,451.954 318.312,455.708 318.118,457.717C317.924,459.726 319.436,462.629 320.663,463.536C321.891,464.443 324.77,464.604 325.485,463.159C332.293,449.413 324.074,450.746 321.829,451.48Z" style="fill:rgb(21,158,60);"/>
        </g>
        <g id="orangeleft1" transform="matrix(1,0,0,1,143.806,-14.3979)">
            <g transform="matrix(1,0,0,1,-143.806,14.3979)">
                <path d="M103.386,369.839C100.517,369.5 97.237,372.526 97.606,376.297C98.37,384.084 115.728,402.124 118.858,403.44C132.013,408.972 164.512,400.581 165.357,390.961C165.608,388.107 165.654,384.028 163.139,382.656C160.443,381.186 152.619,383.338 149.181,382.137C146.208,381.099 143.449,378.455 142.509,375.449C141.301,371.585 142.831,362.995 141.931,358.955C140.186,351.115 129.008,349.059 125.502,356.049C123.915,359.211 127.619,369.164 125.912,372.887C124.247,376.519 119.014,378.893 115.26,378.385C111.505,377.877 106.328,370.187 103.386,369.839Z" style="fill:rgb(235,76,72);"/>
            </g>
            <path d="M128.968,300C126.534,301.686 123.949,307.307 124.889,311.151C126.423,317.429 134.486,331.785 138.176,337.665C140.385,341.183 144.364,346.178 147.034,346.432C149.704,346.687 152.55,342.16 154.195,339.191C156.976,334.173 162.178,321.411 163.719,316.325C164.459,313.883 165.618,310.002 163.439,308.675C161.247,307.341 154.561,309.595 150.571,308.322C146.58,307.049 143.094,302.425 139.493,301.038C136.204,299.77 131.403,298.314 128.968,300Z" style="fill:rgb(235,76,72);"/>
            <path d="M176.538,234.764C179.638,234.11 187.362,238.792 190.791,241.144C193.536,243.026 195.805,245.811 197.115,248.87C198.809,252.829 201.848,260.363 200.957,264.893C200.065,269.423 196.392,275.309 191.765,276.051C184.675,277.188 174.677,266.278 173.351,259.534C172.418,254.787 171.662,249.193 172.193,245.065C172.669,241.369 173.439,235.417 176.538,234.764Z" style="fill:rgb(235,76,72);"/>
            <path d="M104.552,576.5C105.613,574.667 109.145,572.719 111.38,572.236C113.572,571.763 116.514,572.765 117.966,573.603C119.189,574.309 120.246,576.105 120.094,577.265C119.943,578.426 118.406,579.923 117.056,580.566C115.217,581.442 111.07,582.079 109.063,582.524C107.726,582.82 105.768,584.239 105.016,583.235C104.264,582.231 103.491,578.333 104.552,576.5Z" style="fill:rgb(235,76,72);"/>
            <path d="M56.339,320.82C59.616,320.989 63.797,325.993 68.11,326.244C73.298,326.545 82.896,322.488 87.47,322.627C90.543,322.72 94.837,324.086 95.551,327.077C96.449,330.839 97.218,340.924 92.856,345.198C88.198,349.76 75.376,355.173 67.605,354.454C59.833,353.734 49.419,345.752 46.226,340.881C43.337,336.474 46.759,328.572 48.445,325.229C49.801,322.537 53.329,320.664 56.339,320.82Z" style="fill:rgb(235,76,72);"/>
            <path d="M170.368,393.643C168.905,394.827 166.14,398.33 165.915,400.433C165.69,402.535 166.939,405.54 169.019,406.259C171.248,407.03 176.815,406.643 179.29,405.056C181.764,403.468 183.57,398.946 183.866,396.733C184.117,394.852 182.592,392.345 181.063,391.778C179.535,391.211 176.478,393.018 174.695,393.329C173.271,393.577 171.492,392.733 170.368,393.643Z" style="fill:rgb(235,76,72);"/>
            <path d="M97.103,436.838C99.191,436.873 102.585,437.822 104.078,439.536C105.572,441.249 106.607,444.562 106.065,447.119C105.33,450.584 103.206,456.948 99.669,460.329C95.85,463.978 88.884,469.014 83.152,469.017C77.421,469.019 69.1,464.848 65.281,460.343C61.463,455.838 58.385,447.531 60.243,441.987C62.1,436.442 72.154,429.223 76.426,427.077C79.305,425.631 83.902,427.454 85.874,429.114C87.846,430.773 89.05,434.393 88.256,437.034C87.355,440.035 81.047,444.436 80.465,447.119C79.942,449.526 82.959,452.867 84.762,453.131C86.564,453.395 90.148,451.003 91.28,448.702C92.412,446.401 90.583,441.303 91.554,439.326C92.447,437.506 95.076,436.804 97.103,436.838Z" style="fill:rgb(235,76,72);"/>
            <path d="M9.28,516.665C15.679,527.089 20.708,537.573 24.351,548.119C21.475,548.794 18.896,548.05 16.643,545.748C14.053,538.142 9.778,530.634 2.482,523.301C1.438,519.988 4.978,518.2 9.28,516.665Z" style="fill:rgb(235,76,72);"/>
            <path d="M19.905,509.053C14.202,512.065 11.626,516.018 13.324,521.255C17.369,528.485 21.97,534.123 27.08,538.309C35.859,542.357 44.718,545.238 54.003,541.928C57.155,540.505 59.907,537.641 62.026,532.512C66.142,522.489 47.949,509.241 44.419,512.555C40.746,516.695 41.184,520.475 42.065,525.389C41.183,528.715 39.555,531.144 36.288,531.6C33.713,530.867 31.689,526.83 29.915,521.292C27.989,514.976 24.429,511.25 19.905,509.053Z" style="fill:rgb(235,76,72);"/>
        </g>
    </g>
</svg>
